<svg xmlns="http://www.w3.org/2000/svg" aria-hidden="true" style="position:absolute;width:0;height:0;overflow:hidden">
  <defs>
    <symbol id="icon-applePay" viewBox="0 0 43 32">
      <path fill="#fff" d="M9.941 3.265h23.417a3.513 3.513 0 0 1 3.513 3.513v12.587a3.513 3.513 0 0 1-3.513 3.513H9.941a3.513 3.513 0 0 1-3.513-3.513V6.778a3.513 3.513 0 0 1 3.513-3.513z" style="fill:var(--color1, #fff)"/>
      <path fill="#000008" d="M16.274 10.502c.203-.254.341-.595.305-.944-.297.015-.66.196-.87.45-.189.218-.355.573-.312.907.334.029.667-.167.878-.414zM16.575 10.981c-.485-.029-.897.275-1.128.275s-.586-.261-.969-.254a1.427 1.427 0 0 0-1.215.738c-.521.898-.137 2.229.369 2.96.246.362.542.76.933.746.369-.014.514-.239.962-.239s.578.239.969.232c.405-.007.658-.362.904-.724.282-.412.398-.81.405-.832-.007-.007-.781-.304-.788-1.194-.007-.745.608-1.1.637-1.122-.347-.514-.89-.571-1.078-.586zM20.795 9.973c1.053 0 1.787.726 1.787 1.783 0 1.061-.749 1.791-1.813 1.791h-1.166v1.855h-.843V9.973h2.035zm-1.193 2.866h.967c.734 0 1.151-.395 1.151-1.08s-.418-1.076-1.148-1.076h-.971v2.156zM22.802 14.277c0-.692.531-1.117 1.471-1.17l1.084-.064v-.305c0-.44-.297-.704-.794-.704-.47 0-.764.226-.835.579h-.767c.045-.715.655-1.242 1.633-1.242.959 0 1.573.508 1.573 1.302v2.728h-.779v-.651h-.019c-.229.44-.73.719-1.249.719-.775 0-1.317-.482-1.317-1.193zm2.555-.358v-.312l-.974.06c-.485.034-.76.248-.76.587 0 .346.286.572.722.572.568 0 1.012-.391 1.012-.907zM26.901 16.858V16.2c.06.015.195.015.263.015.376 0 .579-.158.703-.564 0-.008.072-.241.072-.245l-1.43-3.962h.88l1.001 3.221h.015l1.001-3.221h.858l-1.482 4.165c-.338.959-.73 1.268-1.55 1.268-.068 0-.271-.008-.331-.019z" style="fill:var(--color2, #000008)"/>
    </symbol>
    <symbol id="icon-arrowRight" viewBox="0 0 32 32">
        <path d="M6.53073 2.4694L11.5307 7.4694C11.6007 7.53908 11.6561 7.62187 11.694 7.71304C11.7318 7.8042 11.7513 7.90194 11.7513 8.00065C11.7513 8.09936 11.7318 8.1971 11.694 8.28827C11.6561 8.37943 11.6007 8.46222 11.5307 8.5319L6.53073 13.5319C6.38984 13.6728 6.19874 13.752 5.99948 13.752C5.80023 13.752 5.60913 13.6728 5.46823 13.5319C5.32734 13.391 5.24818 13.1999 5.24818 13.0007C5.24818 12.8014 5.32734 12.6103 5.46823 12.4694L9.93761 8.00003L5.46761 3.53065C5.32671 3.38976 5.24756 3.19866 5.24756 2.9994C5.24756 2.80015 5.32671 2.60905 5.46761 2.46815C5.60851 2.32726 5.7996 2.2481 5.99886 2.2481C6.19812 2.2481 6.38921 2.32726 6.53011 2.46815L6.53073 2.4694Z" fill="black" fill-opacity="0.6"/>
    </symbol>
    <symbol id="icon-calvinKlein" viewBox="0 0 196 32">
      <path fill="#fff" d="M16.122 28.661c-6.813 0-12.628-6.179-12.628-12.919 0-6.715 5.694-13.017 12.579-13.017 4.526 0 7.785 2.19 10.438 5.621h3.333c-.998-1.801-2.068-3.455-3.698-4.745-2.798-2.263-6.424-3.6-10.024-3.6C7.484.001.453 7.13.453 15.719c0 8.613 7.129 15.669 15.718 15.669 3.504 0 6.935-1.289 9.684-3.455 1.728-1.387 2.944-3.187 4.112-5.037h-3.333c-2.629 3.431-5.986 5.766-10.512 5.766zm34.55-16.423c-2.092-2.701-4.939-4.404-8.467-4.404-6.326 0-11.533 5.135-11.533 11.461 0 6.325 5.232 11.508 11.533 11.508 3.674 0 6.228-1.533 8.467-4.356v3.844h2.749V8.369h-2.749v3.869zM42.06 28.272c-4.843 0-8.663-4.209-8.663-8.953 0-4.721 3.796-8.954 8.663-8.954 4.841 0 8.613 4.234 8.613 8.954 0 4.744-3.796 8.953-8.613 8.953zm14.695 2.019H59.7V.631h-2.945v29.66zm14.063-3.48L63.373 8.369h-2.92l8.93 21.922h2.968l8.906-21.922h-2.871l-7.567 18.442zm11.655 3.48h2.944V8.369h-2.944v21.922zm0-24.744h2.944V.632h-2.944v4.915zm15.62 2.286c-2.774 0-4.744 1.461-6.569 3.407V8.369h-2.726v21.922h2.895V16.933c-.024-3.528 2.896-6.568 6.448-6.568 4.452 0 6.69 3.869 6.69 7.859v12.068h2.725V18.224c.001-5.693-3.331-10.39-9.463-10.39zM134.881.631l-13.382 17.008V.631h-2.895v29.66h2.895V22.14l3.796-4.72 9.659 12.87h3.675l-11.486-15.207L138.629.63h-3.749zm4.818 29.66h2.872V.631h-2.872v29.66zm26.643-16.399c-1.995-3.723-5.986-6.059-10.196-6.059-6.277 0-11.582 5.232-11.582 11.509 0 6.325 5.353 11.46 11.633 11.46 2.991 0 5.937-1.192 8.101-3.26 1.315-1.241 2.093-2.798 2.797-4.429h-3.089c-1.558 3.042-4.308 5.158-7.861 5.158-2.164 0-4.281-.876-5.886-2.36-1.656-1.507-2.386-3.358-2.703-5.547h20.221c.001-2.287-.316-4.476-1.435-6.472zm-18.687 3.942c.878-4.111 4.112-7.469 8.542-7.469 3.722 0 7.713 2.288 8.588 7.469h-17.13zm22.264 12.457h2.894V8.369h-2.894v21.922zm0-24.646h2.894V.632h-2.894v5.013zm15.621 2.188c-2.824 0-4.794 1.461-6.644 3.407V8.369h-2.774v21.922h2.92V16.933c-.024-3.552 2.969-6.568 6.545-6.568 4.429 0 6.766 3.869 6.766 7.859v12.068h2.725V18.224c0-5.693-3.384-10.39-9.538-10.39z" style="fill:var(--color1, #fff)"/>
    </symbol>
    <symbol id="icon-cart" viewBox="0 0 32 32">
      <path d="M12.5 27a2.506 2.506 0 0 1-1.543 2.31 2.496 2.496 0 0 1-2.724-.542 2.503 2.503 0 0 1 .379-3.846 2.5 2.5 0 0 1 3.889 2.079zM23 24.5a2.506 2.506 0 0 0-2.31 1.543 2.496 2.496 0 0 0 .542 2.724 2.503 2.503 0 0 0 3.846-.379 2.498 2.498 0 0 0-.311-3.157 2.5 2.5 0 0 0-1.768-.732zm6.434-15.059-3.411 11.088A3.484 3.484 0 0 1 22.677 23h-12.31a3.512 3.512 0 0 1-3.366-2.539L2.727 5.5H1.501A1.503 1.503 0 0 1 .001 4a1.503 1.503 0 0 1 1.5-1.5h1.602a2.51 2.51 0 0 1 2.404 1.813l.911 3.186H28a1.498 1.498 0 0 1 1.434 1.941zM25.969 10.5H7.274l2.611 9.137a.497.497 0 0 0 .481.363h12.31a.502.502 0 0 0 .478-.352l2.814-9.147z"/>
    </symbol>
    <symbol id="icon-filters" viewBox="0 0 32 32">
      <path fill="#f0f0f0" d="M16 0c8.837 0 16 7.163 16 16s-7.163 16-16 16S0 24.837 0 16 7.163 0 16 0z" style="fill:var(--color3, #f0f0f0)"/>
      <path d="M16.75 15.75v5.75a.753.753 0 0 1-.75.75.753.753 0 0 1-.75-.75v-5.75A.753.753 0 0 1 16 15a.753.753 0 0 1 .75.75zM20.5 20a.753.753 0 0 0-.75.75v.75a.753.753 0 0 0 .75.75.753.753 0 0 0 .75-.75v-.75a.753.753 0 0 0-.75-.75zm1.5-2.5h-.75v-7a.753.753 0 0 0-.75-.75.753.753 0 0 0-.75.75v7H19a.753.753 0 0 0-.75.75.753.753 0 0 0 .75.75h3a.753.753 0 0 0 .75-.75.753.753 0 0 0-.75-.75zm-10.5.5a.753.753 0 0 0-.75.75v2.75a.753.753 0 0 0 .75.75.753.753 0 0 0 .75-.75v-2.75a.753.753 0 0 0-.75-.75zm1.5-2.5h-.75v-5a.753.753 0 0 0-.75-.75.753.753 0 0 0-.75.75v5H10a.753.753 0 0 0-.75.75.753.753 0 0 0 .75.75h3a.753.753 0 0 0 .75-.75.753.753 0 0 0-.75-.75zm4.5-3h-.75v-2a.753.753 0 0 0-.75-.75.753.753 0 0 0-.75.75v2h-.75a.753.753 0 0 0-.75.75.753.753 0 0 0 .75.75h3a.753.753 0 0 0 .75-.75.753.753 0 0 0-.75-.75z" style="fill:var(--color4, #000)"/>
    </symbol>
    <symbol id="icon-googlePay" viewBox="0 0 43 32">
      <path fill="#fff" d="M9.689 3.265h23.417a3.513 3.513 0 0 1 3.513 3.513v12.587a3.513 3.513 0 0 1-3.513 3.513H9.689a3.513 3.513 0 0 1-3.513-3.513V6.778a3.513 3.513 0 0 1 3.513-3.513z" style="fill:var(--color1, #fff)"/>
      <path fill="#3c4043" d="M20.735 15.422h-.685v-5.328h1.815c.46 0 .852.153 1.173.46.328.307.492.681.492 1.123 0 .453-.164.827-.492 1.13-.317.303-.71.453-1.173.453h-1.13v2.161zm0-4.672v1.858h1.145a.916.916 0 0 0 .678-.275.898.898 0 0 0 .275-.653.89.89 0 0 0-.275-.646.888.888 0 0 0-.678-.282h-1.145v-.004zM25.321 11.656c.506 0 .906.136 1.198.407s.439.642.439 1.113v2.247h-.653v-.506h-.029c-.282.417-.66.624-1.13.624-.403 0-.738-.118-1.009-.357s-.407-.535-.407-.892c0-.378.143-.678.428-.899.285-.225.667-.335 1.141-.335.407 0 .742.075 1.002.225v-.157c0-.239-.093-.439-.282-.606s-.41-.25-.663-.25c-.382 0-.685.16-.906.485l-.603-.378c.332-.481.824-.72 1.473-.72zm-.884 2.646c0 .178.075.328.228.446.15.118.328.178.531.178.289 0 .546-.107.77-.321s.339-.464.339-.752c-.214-.168-.51-.253-.892-.253-.278 0-.51.068-.695.2-.189.139-.282.307-.282.503zM30.681 11.773l-2.282 5.249h-.706l.849-1.837-1.505-3.413h.745l1.084 2.618h.014l1.056-2.618h.745z" style="fill:var(--color5, #3c4043)"/>
      <path fill="#4285f4" d="M18.012 12.829c0-.223-.02-.437-.057-.642h-2.87v1.177h1.653a1.418 1.418 0 0 1-.613.948v.764h.984c.575-.532.904-1.318.904-2.246z" style="fill:var(--color6, #4285f4)"/>
      <path fill="#34a853" d="M16.125 14.312a1.837 1.837 0 0 1-1.039.293c-.797 0-1.473-.537-1.715-1.261h-1.015v.787a3.055 3.055 0 0 0 2.73 1.683c.825 0 1.518-.271 2.023-.739l-.984-.763z" style="fill:var(--color7, #34a853)"/>
      <path fill="#fabb05" d="M13.274 12.759c0-.203.034-.4.096-.585v-.787h-1.015c-.208.413-.325.878-.325 1.372s.117.959.325 1.372l1.015-.787a1.835 1.835 0 0 1-.096-.585z" style="fill:var(--color8, #fabb05)"/>
      <path fill="#e94235" d="M15.085 10.914c.45 0 .854.155 1.172.458l.872-.871a2.937 2.937 0 0 0-2.044-.796 3.055 3.055 0 0 0-2.73 1.683l1.015.787c.242-.724.918-1.261 1.715-1.261z" style="fill:var(--color9, #e94235)"/>
    </symbol>
    <symbol id="icon-gucci" viewBox="0 0 140 32">
      <path fill="#fff" d="m126.039 10.039-.26.082c-1.007-2.083-2.447-3.741-4.318-4.975-1.843-1.233-4.16-1.85-6.953-1.85-1.555 0-3.037.315-4.448.946a11.047 11.047 0 0 0-3.714 2.59c-1.036 1.096-1.872 2.426-2.505 3.988s-.95 3.289-.95 5.18c0 1.891.316 3.618.95 5.18s1.468 2.905 2.505 4.029c1.065 1.096 2.303 1.946 3.714 2.549s2.893.904 4.448.904c2.764 0 5.01-.411 6.737-1.233 1.756-.85 3.239-2.138 4.448-3.865l.26.082-.086 2.631a12.063 12.063 0 0 1-2.289 1.768c-.864.493-1.799.918-2.807 1.275-.979.329-2.001.576-3.066.74a17.994 17.994 0 0 1-3.196.288c-2.217 0-4.332-.343-6.348-1.028s-3.787-1.645-5.312-2.878a14.109 14.109 0 0 1-3.628-4.523c-.892-1.782-1.34-3.755-1.34-5.92s.447-4.125 1.34-5.879c.892-1.782 2.101-3.303 3.628-4.564s3.296-2.22 5.312-2.878a19.587 19.587 0 0 1 6.348-1.028c1.066 0 2.131.082 3.196.247s2.087.425 3.066.781a13.56 13.56 0 0 1 2.807 1.275 10.861 10.861 0 0 1 2.289 1.727l.172 4.358zm-95.165 7.852c-.317.137-.619.315-.907.535s-.432.521-.432.905v5.057c-1.382 1.891-3.153 3.358-5.312 4.399s-4.549 1.562-7.169 1.562c-2.217 0-4.333-.343-6.348-1.028s-3.786-1.645-5.312-2.878a14.109 14.109 0 0 1-3.628-4.523C.874 20.138.427 18.165.427 16s.446-4.125 1.339-5.879c.893-1.782 2.102-3.303 3.628-4.564s3.297-2.22 5.312-2.878a19.587 19.587 0 0 1 6.348-1.028c1.065 0 2.131.082 3.196.247s2.087.425 3.066.781a13.56 13.56 0 0 1 2.807 1.275 10.861 10.861 0 0 1 2.289 1.727l.173 4.358-.259.082c-1.008-2.083-2.447-3.741-4.319-4.975-1.843-1.233-4.16-1.85-6.953-1.85-1.555 0-3.037.315-4.448.946a11.047 11.047 0 0 0-3.714 2.59C7.855 7.928 7.021 9.258 6.387 10.82s-.95 3.289-.95 5.18c0 1.864.302 3.577.907 5.139.633 1.562 1.468 2.905 2.505 4.029a11.888 11.888 0 0 0 3.714 2.59c1.411.603 2.908.905 4.491.905 2.994 0 5.557-.548 7.687-1.645V19.33c0-.384-.158-.685-.475-.905a5.007 5.007 0 0 0-.864-.535l.039-.205c.144.025.403.052.777.082.375.025.763.052 1.166.082h3.714c.346-.025.677-.052.993-.082.317-.025.561-.052.734-.082l.047.206zm31.28-15.376c-.288.137-.576.315-.864.535s-.446.63-.475 1.233c-.026.658-.055 1.494-.086 2.508 0 .987-.013 2.11-.039 3.371 0 1.261-.013 2.631-.04 4.111v4.605c-.026 1.782-.257 3.303-.691 4.564-.432 1.261-1.008 2.316-1.727 3.166-.691.85-1.468 1.521-2.332 2.015a11.16 11.16 0 0 1-2.505 1.11 9.3 9.3 0 0 1-2.289.493c-.72.082-1.281.123-1.684.123-1.641 0-3.225-.206-4.751-.617-1.526-.384-2.865-1.014-4.016-1.891s-2.073-2.015-2.764-3.412c-.691-1.398-1.036-3.097-1.036-5.098v-8.922c0-1.316-.013-2.494-.039-3.536 0-1.069-.013-1.932-.04-2.59-.026-.603-.185-1.014-.475-1.233a5.007 5.007 0 0 0-.864-.535l.04-.205c.144.025.374.052.691.082.346.025.691.052 1.036.082.374 0 .734.013 1.08.038h1.555a14.97 14.97 0 0 1 1.08-.038c.374-.025.72-.052 1.037-.082.345-.025.59-.052.734-.082l.039.205a4.302 4.302 0 0 0-.907.535c-.259.219-.403.63-.432 1.233-.026.658-.055 1.521-.086 2.59V19.33c0 2.988.734 5.194 2.202 6.619s3.642 2.138 6.521 2.138c.835 0 1.785-.096 2.85-.288a7.78 7.78 0 0 0 2.98-1.316c.95-.658 1.742-1.59 2.375-2.796.662-1.206.993-2.809.993-4.81 0-2.165-.013-4.015-.04-5.55 0-1.562-.013-2.892-.039-3.988 0-1.124-.013-2.083-.039-2.878s-.055-1.521-.086-2.179c-.026-.603-.185-1.014-.475-1.233a5.007 5.007 0 0 0-.864-.535l.039-.205c.317.055.676.11 1.08.165.403.025.777.038 1.123.038.317 0 .676-.013 1.08-.038.432-.055.806-.11 1.123-.165l.027.206zm31.338 7.524-.26.082c-1.007-2.083-2.447-3.741-4.318-4.975-1.843-1.233-4.16-1.85-6.953-1.85-1.555 0-3.037.315-4.448.946a11.047 11.047 0 0 0-3.714 2.59c-1.036 1.096-1.871 2.426-2.505 3.988s-.95 3.289-.95 5.18.317 3.618.95 5.18c.633 1.562 1.468 2.905 2.505 4.029 1.065 1.096 2.303 1.946 3.714 2.549s2.894.904 4.448.904c2.764 0 5.01-.411 6.737-1.233 1.756-.85 3.239-2.138 4.448-3.865l.26.082-.086 2.631a12.095 12.095 0 0 1-2.289 1.768c-.864.493-1.8.918-2.807 1.275-.979.329-2.001.576-3.066.74-1.065.192-2.13.288-3.196.288-2.217 0-4.333-.343-6.348-1.028s-3.786-1.645-5.312-2.878a14.109 14.109 0 0 1-3.628-4.523c-.893-1.782-1.339-3.755-1.339-5.92s.446-4.125 1.339-5.879c.892-1.782 2.102-3.303 3.628-4.564s3.296-2.22 5.312-2.878a19.587 19.587 0 0 1 6.348-1.028c1.065 0 2.13.082 3.196.247s2.087.425 3.066.781c1.007.329 1.943.754 2.807 1.275A10.887 10.887 0 0 1 93.32 5.68l.172 4.358zm45.563 19.611a10.006 10.006 0 0 0-.733-.082c-.316 0-.662-.013-1.036-.038-.375 0-.735-.013-1.08-.038h-2.591c-.345.025-.691.052-1.036.082a8.467 8.467 0 0 0-.733.082l-.04-.165c.288-.137.576-.315.864-.535s.446-.63.475-1.233c.027-.658.039-1.343.039-2.056.027-.713.04-1.521.04-2.426V8.728c0-.904-.013-1.699-.04-2.385 0-.713-.012-1.398-.039-2.056-.027-.603-.185-1.014-.475-1.233a3.93 3.93 0 0 0-.864-.575l.04-.165c.172.055.417.096.733.123.346 0 .692.013 1.036.038.374.025.734.038 1.08.038h1.511a14.99 14.99 0 0 1 1.08-.038c.374-.025.72-.052 1.036-.082.345-.025.589-.052.733-.082l.04.165a3.632 3.632 0 0 0-.908.575c-.259.219-.403.63-.432 1.233-.026.658-.055 1.343-.086 2.056v19.323c.027.713.055 1.398.086 2.056.027.603.171 1.014.432 1.233.289.219.591.397.908.535l-.04.161z" style="fill:var(--color1, #fff)"/>
    </symbol>
    <symbol id="icon-Icon" viewBox="0 0 32 32">
      <path stroke-linecap="round" stroke-linejoin="round" stroke-width="3.817" d="M29.333 16H2.666m0 0 13.333 13.333M2.666 16 15.999 2.667"/>
    </symbol>
    <symbol id="icon-mail" viewBox="0 0 32 32">
      <path d="M28 5.5H4A1.503 1.503 0 0 0 2.5 7v17A2.5 2.5 0 0 0 5 26.5h22a2.5 2.5 0 0 0 2.5-2.5V7A1.503 1.503 0 0 0 28 5.5zM16 15.965 7.856 8.5h16.287l-8.144 7.465zM11.599 16 5.5 21.59V10.41L11.599 16zm2.22 2.035 1.167 1.071a1.498 1.498 0 0 0 2.028 0l1.167-1.071 5.963 5.465H7.857l5.963-5.465zM20.401 16l6.099-5.59v11.18L20.401 16z"/>
    </symbol>
    <symbol id="icon-mastercard" viewBox="0 0 43 32">
      <path fill="#fff" d="M9.791 3.265h23.417a3.513 3.513 0 0 1 3.513 3.513v12.587a3.513 3.513 0 0 1-3.513 3.513H9.791a3.513 3.513 0 0 1-3.513-3.513V6.778a3.513 3.513 0 0 1 3.513-3.513z" style="fill:var(--color1, #fff)"/>
      <path fill="#ff5f00" d="M23.686 9.044h-4.482v8.055h4.482V9.044z" style="fill:var(--color10, #ff5f00)"/>
      <path fill="#eb001b" d="M19.489 13.071a5.108 5.108 0 0 1 1.956-4.027 5.126 5.126 0 0 0-5.404-.58 5.117 5.117 0 0 0-2.883 4.608 5.124 5.124 0 0 0 5.668 5.094 5.121 5.121 0 0 0 2.619-1.066 5.113 5.113 0 0 1-1.956-4.027z" style="fill:var(--color11, #eb001b)"/>
      <path fill="#f79e1b" d="M29.733 13.071a5.124 5.124 0 0 1-5.668 5.094 5.121 5.121 0 0 1-2.619-1.066 5.137 5.137 0 0 0 1.956-4.028 5.123 5.123 0 0 0-1.956-4.028 5.126 5.126 0 0 1 5.404-.58 5.124 5.124 0 0 1 2.883 4.608zM29.244 16.245v-.165h.067v-.034h-.169v.034h.066v.165h.036zm.329 0v-.199h-.052l-.06.137-.06-.137h-.052v.199h.037v-.15l.056.129h.038l.056-.13v.15h.037z" style="fill:var(--color12, #f79e1b)"/>
    </symbol>
    <symbol id="icon-paypal" viewBox="0 0 43 32">
      <path fill="#fff" d="M9.539 3.265h23.417a3.513 3.513 0 0 1 3.513 3.513v12.587a3.513 3.513 0 0 1-3.513 3.513H9.539a3.513 3.513 0 0 1-3.513-3.513V6.778a3.513 3.513 0 0 1 3.513-3.513z" style="fill:var(--color1, #fff)"/>
      <path fill="#253b80" d="M12.686 10.218h-1.755a.244.244 0 0 0-.241.206l-.71 4.5a.146.146 0 0 0 .145.169h.838c.12 0 .222-.087.241-.206l.191-1.214a.243.243 0 0 1 .241-.206h.556c1.156 0 1.823-.559 1.998-1.668.079-.485.003-.866-.224-1.133-.249-.293-.692-.448-1.279-.448zm.203 1.643c-.096.63-.577.63-1.042.63h-.265l.186-1.176a.146.146 0 0 1 .144-.123h.121c.317 0 .616 0 .77.181.092.108.12.268.085.489zm5.044-.02h-.84a.146.146 0 0 0-.145.123l-.037.235-.059-.085c-.182-.264-.588-.352-.993-.352-.929 0-1.722.703-1.877 1.69-.08.492.034.963.313 1.291.256.302.623.428 1.059.428.748 0 1.163-.481 1.163-.481l-.038.234a.146.146 0 0 0 .144.169h.757c.12 0 .222-.087.241-.206l.454-2.876a.146.146 0 0 0-.144-.169zm-1.172 1.636a.936.936 0 0 1-.948.802c-.244 0-.439-.078-.564-.227-.124-.147-.171-.357-.132-.59a.941.941 0 0 1 .942-.809c.239 0 .433.079.56.229.128.151.179.362.142.595zm4.803-1.636h.845c.118 0 .187.133.12.23l-2.809 4.054a.243.243 0 0 1-.201.105h-.844a.146.146 0 0 1-.119-.231l.875-1.235-.93-2.73a.146.146 0 0 1 .139-.193h.83c.108 0 .203.071.234.174l.494 1.649 1.165-1.716a.245.245 0 0 1 .202-.107z" style="fill:var(--color13, #253b80)"/>
      <path fill="#179bd7" d="m30.722 14.923.72-4.582a.148.148 0 0 1 .144-.124h.811c.09 0 .158.08.144.169l-.71 4.5a.243.243 0 0 1-.241.206h-.724a.146.146 0 0 1-.144-.169zm-5.517-4.706H23.45a.244.244 0 0 0-.241.206l-.71 4.5a.146.146 0 0 0 .144.169h.901a.17.17 0 0 0 .168-.144l.201-1.276a.244.244 0 0 1 .241-.206h.555c1.156 0 1.823-.559 1.998-1.668.079-.485.003-.866-.224-1.133-.249-.293-.691-.448-1.279-.448zm.203 1.644c-.096.63-.577.63-1.042.63h-.265l.186-1.176a.145.145 0 0 1 .144-.123h.121c.317 0 .616 0 .77.181.092.108.12.268.085.489zm5.043-.02h-.84a.145.145 0 0 0-.144.123l-.037.235-.059-.085c-.182-.264-.587-.352-.992-.352-.929 0-1.722.703-1.876 1.69-.08.492.034.963.313 1.291.257.302.623.428 1.059.428.748 0 1.163-.481 1.163-.481l-.037.234a.146.146 0 0 0 .145.169h.757c.12 0 .222-.087.241-.206l.454-2.876a.147.147 0 0 0-.145-.169zm-1.171 1.635a.936.936 0 0 1-.948.802c-.244 0-.439-.078-.564-.227-.124-.147-.171-.357-.132-.59a.941.941 0 0 1 .942-.809c.239 0 .433.079.561.229.128.151.179.362.142.595z" style="fill:var(--color14, #179bd7)"/>
    </symbol>
    <symbol id="icon-prada" viewBox="0 0 195 32">
      <path fill="#fff" stroke="#fff" stroke-miterlimit="2.613" stroke-width="1.024" d="m.482.902 2.932 3.307v24.202l-2.173 3.167 13.309.02-2.399-2.914-.249-8.716 12.833.07c3.89-1.295 7.889-4.056 8.081-9.638-.061-5.409-3.364-8.879-7.198-9.569L.482.902zM11.427 2.45v15.548l9.846.071c2.24-1.807 3.939-3.19 3.871-7.528-.032-3.537-.779-6.621-4.075-8.091l-9.642-.001zM38.975.725l2.932 3.308v24.202l-2.173 3.168 13.309.019-2.399-2.914-.249-8.716h.053l13.75 11.728 11.411-.093-10.415-9.008H56.5l-3.064-2.61 9.792.053c3.89-1.295 7.888-4.056 8.081-9.638-.061-5.409-3.363-8.879-7.198-9.568l-25.135.07zm10.944 1.548v15.548l9.846.071c2.241-1.807 3.939-3.19 3.871-7.529-.032-3.536-.779-6.621-4.075-8.091h-9.642zM86.595.691h11.476l14.938 27.72c.647 2.14 2.58 1.876 3.871 2.815h-14.464l2.174-.68-.136-2.064-3.735-5.981-12.698.071-2.716 5.77c-.091.656-.793 1.154-.272 1.969l1.019.985-6.247-.141 2.717-.844L92.774 8.712V7.234l-4.332-5.779-1.847-.764zm2.229 19.907 5.274-9.985 5.491 9.929-10.765.056zM164.197.751h11.475l14.939 27.72c.646 2.14 2.58 1.876 3.871 2.815h-14.465l2.174-.681-.136-2.064-3.735-5.979-12.698.071-2.716 5.768c-.091.658-.792 1.156-.272 1.971l1.019.985-6.246-.141 2.716-.844 10.253-21.599V7.294l-4.332-5.778-1.847-.764zm2.228 19.908 5.274-9.985 5.492 9.928-10.766.058zM120.849.402l20.443.113c6.583 1.542 10.772 5.564 12.071 12.58l-.055 5.472c-1.2 6.252-5.133 10.565-12.07 12.749l-20.498.058-.003-.662c3.116-.235 3.365-.591 3.373-2.441V3.336c-.035-1.368-.308-2.219-3.316-2.313l.055-.62zm11.62 2.134-.019 26.978c2.696.009 5.035.262 6.356-.413 2.995-1.368 4.385-3.468 4.513-5.441l-.072-15.93c.001-2.548-2.765-4.347-4.362-4.816-1.142-.423-3.42-.441-6.416-.378z" style="fill:var(--color1, #fff);stroke:var(--color1, #fff)"/>
    </symbol>
    <symbol id="icon-profile" viewBox="0 0 32 32">
      <path d="M16 2.5a13.502 13.502 0 0 0-12.472 8.334 13.497 13.497 0 0 0 2.927 14.712 13.5 13.5 0 0 0 23.046-9.545 13.512 13.512 0 0 0-13.5-13.5zM9.946 24.571c.696-.952 1.607-1.727 2.659-2.26s2.215-.812 3.394-.812a7.493 7.493 0 0 1 6.053 3.072 10.464 10.464 0 0 1-12.108 0zM12.5 15a3.494 3.494 0 0 1 2.161-3.233 3.498 3.498 0 0 1 4.772 2.551A3.498 3.498 0 0 1 16 18.501a3.502 3.502 0 0 1-3.5-3.5zm11.75 7.493a10.435 10.435 0 0 0-3.625-2.928 6.498 6.498 0 0 0-4.626-11.067 6.498 6.498 0 0 0-5.998 3.994 6.496 6.496 0 0 0 1.372 7.073 10.424 10.424 0 0 0-3.625 2.928 10.503 10.503 0 0 1-1.205-11.084 10.501 10.501 0 1 1 17.693 11.084h.013z"/>
    </symbol>
    <symbol id="icon-rhomb" viewBox="0 0 32 32">
      <path d="M16 0c.543 8.602 7.398 15.457 16 16-8.602.543-15.457 7.398-16 16-.543-8.602-7.398-15.457-16-16 8.602-.543 15.457-7.398 16-16z"/>
    </symbol>
    <symbol id="icon-search" viewBox="0 0 32 32">
      <path stroke-width="1.333" d="M29.061 26.939 23.125 21a11.512 11.512 0 0 0-1.543-15.668 11.517 11.517 0 0 0-15.735.514 11.512 11.512 0 0 0 7.015 19.602c2.91.287 5.819-.544 8.139-2.324l5.941 5.942a1.5 1.5 0 0 0 2.124 0 1.493 1.493 0 0 0 .326-1.637 1.484 1.484 0 0 0-.326-.487l-.005-.004zM5.5 14c0-1.681.498-3.325 1.433-4.722s2.261-2.487 3.815-3.131a8.502 8.502 0 0 1 9.263 1.842 8.498 8.498 0 0 1-1.289 13.078A8.5 8.5 0 0 1 14 22.5 8.51 8.51 0 0 1 5.5 14z"/>
    </symbol>
    <symbol id="icon-star" viewBox="0 0 36 32">
      <path fill="#ffc633" d="m17.402.48 4.93 10.616 11.62 1.408-8.573 7.97 2.251 11.487-10.229-5.691-10.229 5.691 2.251-11.487-8.573-7.97 11.62-1.408L17.4.48z" style="fill:var(--color15, #ffc633)"/>
    </symbol>
    <symbol id="icon-starHalf" viewBox="0 0 19 32">
      <path fill="#ffc633" d="m7.085 31.961 10.229-5.691V.48l-4.93 10.616-11.62 1.408 8.573 7.97-2.251 11.487z" style="fill:var(--color15, #ffc633)"/>
    </symbol>
    <symbol id="icon-trash" viewBox="0 0 32 32">
      <path d="M27 6h-5V5a3.004 3.004 0 0 0-3-3h-6a3.004 3.004 0 0 0-3 3v1H5a.997.997 0 0 0-1 1 .997.997 0 0 0 1 1h1v18a2 2 0 0 0 2 2h16a2 2 0 0 0 2-2V8h1a.997.997 0 0 0 1-1 .997.997 0 0 0-1-1zM14 21a.997.997 0 0 1-1 1 .997.997 0 0 1-1-1v-8a.997.997 0 0 1 1-1 .997.997 0 0 1 1 1v8zm6 0a.997.997 0 0 1-1 1 .997.997 0 0 1-1-1v-8a.997.997 0 0 1 1-1 .997.997 0 0 1 1 1v8zm0-15h-8V5a.997.997 0 0 1 1-1h6a.997.997 0 0 1 1 1v1z"/>
    </symbol>
    <symbol id="icon-versace" viewBox="0 0 157 32">
      <path fill="#fff" d="M141.345.617h15.344v2.445a4.368 4.368 0 0 0-1.383-.228h-8.82v11.424h8.58c.616 0 1.165-.068 1.622-.183v2.434c-.389-.091-.924-.137-1.588-.137h-8.614v11.813h8.556a7.12 7.12 0 0 0 1.645-.217v2.628h-15.32c.122-.462.184-.938.184-1.416V2.068c0-.594-.069-1.085-.206-1.451zm-3.552 7.78-4.433-.034c-.217-2.491-1.645-4.903-4.787-5.347-6.729-.606-8.626 6.785-8.455 12.19.172 5.209 1.005 13.218 7.952 13.218 2.914 0 5.712-2.994 5.621-5.518l4.102-.034c-.297 5.209-6.272 8.225-9.117 8.328-9.721.332-13.79-6.147-13.995-15.39-.183-8.373 3.245-15.811 12.853-15.811 8.226.115 9.814 4.982 10.26 8.397zM68.65 27.191l2.937-2.456c1.53 2.525 2.787 3.678 5.826 3.678 3.084 0 5.678-1.873 5.678-5.186 0-1.634-.663-2.971-1.977-3.976-.595-.469-2.103-1.28-4.479-2.411-3.553-1.702-7.014-3.919-7.014-8.374 0-5.621 4.775-8.101 9.813-8.284 2.982-.114 6.684 1.532 8.18 3.382L84.632 5.86a6.232 6.232 0 0 0-5.484-3.289c-3.805 0-6.821 4.41-3.668 7.449.799.777 2.434 1.736 4.925 2.878 3.975 1.863 7.368 4.09 7.368 9.014 0 1.702-.446 3.29-1.325 4.741-1.77 2.925-4.73 4.387-8.865 4.387-4.753 0-5.689-1.085-8.935-3.851zM26.813.617h15.331v2.445a4.357 4.357 0 0 0-1.382-.228h-8.819v11.424h8.58c.617 0 1.166-.068 1.622-.183v2.434c-.389-.091-.925-.137-1.576-.137h-8.626v11.813H40.5c.468 0 1.029-.068 1.645-.217v2.628H26.837c.112-.464.169-.939.171-1.416V2.068c0-.594-.069-1.085-.194-1.451zM0 .617h5.575v.275c0 .251.08.582.217 1.005l7.859 23.66 8.066-23.764c.125-.399.194-.788.194-1.177h2.708c-.274.48-.48.903-.606 1.28l-9.209 27.477c-.091.263-.171.674-.239 1.223h-4.57a7.71 7.71 0 0 0-.308-1.223L.662 2.113A45.122 45.122 0 0 0 .01.616h-.011zm59.214 15.63c3.656-.72 6.455-3.519 6.455-7.518 0-5.245-4.387-8.113-9.3-8.113h-8.98c.125.458.194.937.194 1.44v27.099c0 .583-.069 1.074-.194 1.44h5.347a5.269 5.269 0 0 1-.194-1.44V16.703l1.713.183 8.958 13.709h5.381l-9.38-14.349zm-.926-2.285c-.971.685-2.137 1.027-3.473 1.027H52.53V2.801h2.045c1.749 0 3.108.433 4.079 1.301 1.325 1.201 1.999 2.823 1.999 4.856 0 2.194-.789 3.862-2.365 5.004zm55.501 15.389-9.984-27.739a3.628 3.628 0 0 1-.195-.994h-4.319c0 .354-.057.731-.195 1.108L89.42 29.352a5.476 5.476 0 0 1-.606 1.245h2.787c-.011-.457.046-.88.172-1.245l2.866-8.147h11.025l2.834 8.147c.149.444.216.856.216 1.244h5.782c-.332-.468-.571-.891-.709-1.245zM95.396 18.999l4.661-13.538 4.788 13.538h-9.448z" style="fill:var(--color1, #fff)"/>
    </symbol>
    <symbol id="icon-visa" viewBox="0 0 43 32">
      <path fill="#fff" d="M10.043 3.265H33.46a3.513 3.513 0 0 1 3.513 3.513v12.587a3.513 3.513 0 0 1-3.513 3.513H10.043a3.513 3.513 0 0 1-3.513-3.513V6.778a3.513 3.513 0 0 1 3.513-3.513z" style="fill:var(--color1, #fff)"/>
      <path fill="#1434cb" d="m21.565 9.875-1.42 6.637h-1.717l1.42-6.637h1.717zm7.224 4.286.904-2.493.52 2.493h-1.424zm1.916 2.351h1.588l-1.386-6.637h-1.466a.783.783 0 0 0-.731.487l-2.576 6.15h1.803l.358-.991h2.203l.207.991zm-4.481-2.167c.007-1.752-2.423-1.848-2.406-2.631.005-.238.232-.491.728-.556.246-.032.924-.057 1.693.297l.301-1.408a4.614 4.614 0 0 0-1.606-.294c-1.697 0-2.892.902-2.902 2.194-.011.955.853 1.489 1.503 1.806.669.325.894.534.891.825-.004.446-.534.642-1.027.65-.863.014-1.364-.233-1.764-.419l-.311 1.454c.401.184 1.142.344 1.91.353 1.803 0 2.983-.891 2.989-2.271zm-7.112-4.47-2.782 6.637h-1.815l-1.369-5.297c-.083-.326-.155-.446-.408-.583-.412-.224-1.094-.434-1.694-.564l.041-.193h2.922c.372 0 .707.248.792.677l.723 3.841 1.787-4.518h1.804z" style="fill:var(--color16, #1434cb)"/>
    </symbol>
    <symbol id="icon-zara" viewBox="0 0 77 32">
      <path fill="#fff" d="M73.107 31.047 61.746.007h-.224l-6.594 17.979-.01-.009c-1.475-1.292-3.556-2.099-6.178-2.4l-.799-.082.793-.101c4.322-.771 7.228-3.48 7.228-6.744 0-4.476-4.242-7.6-10.319-7.6H33v.227h3.674v23.127L27.744.006h-.224l-11.356 30.96-.055.006a9.287 9.287 0 0 1-.457.045 8.563 8.563 0 0 1-.679.028H5.862L23.31 1.052H2.127v9.209h.225c.04-4.486 2.672-8.985 8.489-8.985h7.017L.407 31.269h23.509v-8.823h-.225c-.031 3.91-2.264 7.623-7.121 8.462l-.154.026 3.699-10.089h10.361l3.733 10.201h-3.683v.223h14.455v-.223h-3.699V15.659h4.268c4.343 0 6.834 1.925 6.834 5.281v2.73c0 .301.021.74.043 1.108v.013l-2.294 6.254h-2.997v.223h6.203v-.223h-2.964l2.089-5.695.006.088.058.513.056.339c.349 2.1 1.158 3.644 2.405 4.588l.179.129c.947.654 2.125.985 3.501.985 1.823 0 3.039-.451 4.042-1.513l-.132-.123c-.925.847-1.701 1.19-2.673 1.19-1.657 0-2.524-1.994-2.524-3.96v-3.824a8.526 8.526 0 0 0-.443-2.793l-.041-.119v-.004h7.579l3.733 10.201h-3.683v.223h12.509v-.223l-3.931-.001zM20.196 20.623 25.3 6.707l5.093 13.916H20.196zm21.089-5.187V1.277h3.258c4.352 0 6.649 2.567 6.649 7.421 0 5.163-1.319 6.737-5.641 6.737h-4.266zm15.525 5.187-.022-.055a6.897 6.897 0 0 0-1.445-2.188l-.213-.212-.023-.021 4.192-11.44 5.093 13.916H56.81z" style="fill:var(--color1, #fff)"/>
    </symbol>
      <symbol id="icon-close" viewBox="0 0 20 20">
          <path d="M16.2882 14.9617C16.4644 15.1378 16.5633 15.3767 16.5633 15.6258C16.5633 15.8749 16.4644 16.1137 16.2882 16.2898C16.1121 16.466 15.8733 16.5649 15.6242 16.5649C15.3751 16.5649 15.1362 16.466 14.9601 16.2898L9.99997 11.3281L5.03825 16.2883C4.86213 16.4644 4.62326 16.5633 4.37418 16.5633C4.12511 16.5633 3.88624 16.4644 3.71012 16.2883C3.534 16.1122 3.43506 15.8733 3.43506 15.6242C3.43506 15.3751 3.534 15.1363 3.71012 14.9602L8.67184 10L3.71168 5.03828C3.53556 4.86216 3.43662 4.62329 3.43662 4.37422C3.43662 4.12515 3.53556 3.88628 3.71168 3.71016C3.8878 3.53404 4.12668 3.43509 4.37575 3.43509C4.62482 3.43509 4.86369 3.53404 5.03981 3.71016L9.99997 8.67188L14.9617 3.70938C15.1378 3.53326 15.3767 3.43431 15.6257 3.43431C15.8748 3.43431 16.1137 3.53326 16.2898 3.70938C16.4659 3.8855 16.5649 4.12437 16.5649 4.37344C16.5649 4.62251 16.4659 4.86138 16.2898 5.0375L11.3281 10L16.2882 14.9617Z"/>
      </symbol>
      <symbol id="icon-arrow" viewBox="0 0 16 16">
          <path d="M13.5306 6.53063L8.5306 11.5306C8.46092 11.6005 8.37813 11.656 8.28696 11.6939C8.1958 11.7317 8.09806 11.7512 7.99935 11.7512C7.90064 11.7512 7.8029 11.7317 7.71173 11.6939C7.62057 11.656 7.53778 11.6005 7.4681 11.5306L2.4681 6.53063C2.3272 6.38973 2.24805 6.19864 2.24805 5.99938C2.24805 5.80012 2.3272 5.60902 2.4681 5.46813C2.60899 5.32723 2.80009 5.24808 2.99935 5.24808C3.19861 5.24808 3.3897 5.32723 3.5306 5.46813L7.99997 9.9375L12.4693 5.4675C12.6102 5.32661 12.8013 5.24745 13.0006 5.24745C13.1999 5.24745 13.391 5.32661 13.5318 5.4675C13.6727 5.6084 13.7519 5.7995 13.7519 5.99875C13.7519 6.19801 13.6727 6.38911 13.5318 6.53L13.5306 6.53063Z"/>
      </symbol>
      <symbol id="icon-burger-menu" viewBox="0 0 24 24">
          <path d="M21.375 12C21.375 12.2984 21.2565 12.5845 21.0455 12.7955C20.8345 13.0065 20.5484 13.125 20.25 13.125H3.75C3.45163 13.125 3.16548 13.0065 2.9545 12.7955C2.74353 12.5845 2.625 12.2984 2.625 12C2.625 11.7016 2.74353 11.4155 2.9545 11.2045C3.16548 10.9935 3.45163 10.875 3.75 10.875H20.25C20.5484 10.875 20.8345 10.9935 21.0455 11.2045C21.2565 11.4155 21.375 11.7016 21.375 12ZM3.75 7.125H20.25C20.5484 7.125 20.8345 7.00647 21.0455 6.7955C21.2565 6.58452 21.375 6.29837 21.375 6C21.375 5.70163 21.2565 5.41548 21.0455 5.2045C20.8345 4.99353 20.5484 4.875 20.25 4.875H3.75C3.45163 4.875 3.16548 4.99353 2.9545 5.2045C2.74353 5.41548 2.625 5.70163 2.625 6C2.625 6.29837 2.74353 6.58452 2.9545 6.7955C3.16548 7.00647 3.45163 7.125 3.75 7.125ZM20.25 16.875H3.75C3.45163 16.875 3.16548 16.9935 2.9545 17.2045C2.74353 17.4155 2.625 17.7016 2.625 18C2.625 18.2984 2.74353 18.5845 2.9545 18.7955C3.16548 19.0065 3.45163 19.125 3.75 19.125H20.25C20.5484 19.125 20.8345 19.0065 21.0455 18.7955C21.2565 18.5845 21.375 18.2984 21.375 18C21.375 17.7016 21.2565 17.4155 21.0455 17.2045C20.8345 16.9935 20.5484 16.875 20.25 16.875Z"/>
      </symbol>
  </defs>
</svg>
