<svg xmlns="http://www.w3.org/2000/svg" aria-hidden="true"
     style="position:absolute;width:0;height:0;overflow:hidden">
    <defs>
        <symbol id="icon-arrowRight" viewBox="0 0 25 24">
            <path d="M14.7959 4.4541L21.5459 11.2041C21.6508 11.3086 21.734 11.4328 21.7908 11.5696C21.8476 11.7063 21.8768 11.8529 21.8768 12.001C21.8768 12.149 21.8476 12.2957 21.7908 12.4324C21.734 12.5691 21.6508 12.6933 21.5459 12.7979L14.7959 19.5479C14.5846 19.7592 14.2979 19.8779 13.9991 19.8779C13.7002 19.8779 13.4135 19.7592 13.2022 19.5479C12.9908 19.3365 12.8721 19.0499 12.8721 18.751C12.8721 18.4521 12.9908 18.1654 13.2022 17.9541L18.0313 13.125L4.25 13.125C3.95163 13.125 3.66548 13.0065 3.4545 12.7955C3.24353 12.5846 3.125 12.2984 3.125 12C3.125 11.7017 3.24353 11.4155 3.45451 11.2045C3.66548 10.9936 3.95163 10.875 4.25 10.875L18.0313 10.875L13.2013 6.04598C12.9899 5.83463 12.8712 5.54799 12.8712 5.2491C12.8712 4.95022 12.9899 4.66357 13.2013 4.45223C13.4126 4.24088 13.6992 4.12215 13.9981 4.12215C14.297 4.12215 14.5837 4.24088 14.795 4.45223L14.7959 4.4541Z"/>
        </symbol>
        <symbol id="icon-calvinKlein" viewBox="0 0 196 33">
            <path fill="#fff"
                  d="M16.122 28.661c-6.813 0-12.628-6.179-12.628-12.919 0-6.715 5.694-13.017 12.579-13.017 4.526 0 7.785 2.19 10.438 5.621h3.333c-.998-1.801-2.068-3.455-3.698-4.745-2.798-2.263-6.424-3.6-10.024-3.6C7.484.001.453 7.13.453 15.719c0 8.613 7.129 15.669 15.718 15.669 3.504 0 6.935-1.289 9.684-3.455 1.728-1.387 2.944-3.187 4.112-5.037h-3.333c-2.629 3.431-5.986 5.766-10.512 5.766zm34.55-16.423c-2.092-2.701-4.939-4.404-8.467-4.404-6.326 0-11.533 5.135-11.533 11.461 0 6.325 5.232 11.508 11.533 11.508 3.674 0 6.228-1.533 8.467-4.356v3.844h2.749V8.369h-2.749v3.869zM42.06 28.272c-4.843 0-8.663-4.209-8.663-8.953 0-4.721 3.796-8.954 8.663-8.954 4.841 0 8.613 4.234 8.613 8.954 0 4.744-3.796 8.953-8.613 8.953zm14.695 2.019H59.7V.631h-2.945v29.66zm14.063-3.48L63.373 8.369h-2.92l8.93 21.922h2.968l8.906-21.922h-2.871l-7.567 18.442zm11.655 3.48h2.944V8.369h-2.944v21.922zm0-24.744h2.944V.632h-2.944v4.915zm15.62 2.286c-2.774 0-4.744 1.461-6.569 3.407V8.369h-2.726v21.922h2.895V16.933c-.024-3.528 2.896-6.568 6.448-6.568 4.452 0 6.69 3.869 6.69 7.859v12.068h2.725V18.224c.001-5.693-3.331-10.39-9.463-10.39zM134.881.631l-13.382 17.008V.631h-2.895v29.66h2.895V22.14l3.796-4.72 9.659 12.87h3.675l-11.486-15.207L138.629.63h-3.749zm4.818 29.66h2.872V.631h-2.872v29.66zm26.643-16.399c-1.995-3.723-5.986-6.059-10.196-6.059-6.277 0-11.582 5.232-11.582 11.509 0 6.325 5.353 11.46 11.633 11.46 2.991 0 5.937-1.192 8.101-3.26 1.315-1.241 2.093-2.798 2.797-4.429h-3.089c-1.558 3.042-4.308 5.158-7.861 5.158-2.164 0-4.281-.876-5.886-2.36-1.656-1.507-2.386-3.358-2.703-5.547h20.221c.001-2.287-.316-4.476-1.435-6.472zm-18.687 3.942c.878-4.111 4.112-7.469 8.542-7.469 3.722 0 7.713 2.288 8.588 7.469h-17.13zm22.264 12.457h2.894V8.369h-2.894v21.922zm0-24.646h2.894V.632h-2.894v5.013zm15.621 2.188c-2.824 0-4.794 1.461-6.644 3.407V8.369h-2.774v21.922h2.92V16.933c-.024-3.552 2.969-6.568 6.545-6.568 4.429 0 6.766 3.869 6.766 7.859v12.068h2.725V18.224c0-5.693-3.384-10.39-9.538-10.39z"
                  style="fill:var(--color1, #fff)"/>
        </symbol>
        <symbol id="icon-cart" viewBox="0 0 32 32">
            <path d="M12.5 27a2.506 2.506 0 0 1-1.543 2.31 2.496 2.496 0 0 1-2.724-.542 2.503 2.503 0 0 1 .379-3.846 2.5 2.5 0 0 1 3.889 2.079zM23 24.5a2.506 2.506 0 0 0-2.31 1.543 2.496 2.496 0 0 0 .542 2.724 2.503 2.503 0 0 0 3.846-.379 2.498 2.498 0 0 0-.311-3.157 2.5 2.5 0 0 0-1.768-.732zm6.434-15.059-3.411 11.088A3.484 3.484 0 0 1 22.677 23h-12.31a3.512 3.512 0 0 1-3.366-2.539L2.727 5.5H1.501A1.503 1.503 0 0 1 .001 4a1.503 1.503 0 0 1 1.5-1.5h1.602a2.51 2.51 0 0 1 2.404 1.813l.911 3.186H28a1.498 1.498 0 0 1 1.434 1.941zM25.969 10.5H7.274l2.611 9.137a.497.497 0 0 0 .481.363h12.31a.502.502 0 0 0 .478-.352l2.814-9.147z"/>
        </symbol>
        <symbol id="icon-filters" viewBox="0 0 32 32">
            <path fill="#f0f0f0"
                  d="M16 0c8.837 0 16 7.163 16 16s-7.163 16-16 16S0 24.837 0 16 7.163 0 16 0z"
                  style="fill:var(--color3, #f0f0f0)"/>
            <path d="M16.75 15.75v5.75a.753.753 0 0 1-.75.75.753.753 0 0 1-.75-.75v-5.75A.753.753 0 0 1 16 15a.753.753 0 0 1 .75.75zM20.5 20a.753.753 0 0 0-.75.75v.75a.753.753 0 0 0 .75.75.753.753 0 0 0 .75-.75v-.75a.753.753 0 0 0-.75-.75zm1.5-2.5h-.75v-7a.753.753 0 0 0-.75-.75.753.753 0 0 0-.75.75v7H19a.753.753 0 0 0-.75.75.753.753 0 0 0 .75.75h3a.753.753 0 0 0 .75-.75.753.753 0 0 0-.75-.75zm-10.5.5a.753.753 0 0 0-.75.75v2.75a.753.753 0 0 0 .75.75.753.753 0 0 0 .75-.75v-2.75a.753.753 0 0 0-.75-.75zm1.5-2.5h-.75v-5a.753.753 0 0 0-.75-.75.753.753 0 0 0-.75.75v5H10a.753.753 0 0 0-.75.75.753.753 0 0 0 .75.75h3a.753.753 0 0 0 .75-.75.753.753 0 0 0-.75-.75zm4.5-3h-.75v-2a.753.753 0 0 0-.75-.75.753.753 0 0 0-.75.75v2h-.75a.753.753 0 0 0-.75.75.753.753 0 0 0 .75.75h3a.753.753 0 0 0 .75-.75.753.753 0 0 0-.75-.75z"
                  style="fill:var(--color4, #000)"/>
        </symbol>
        <symbol id="icon-gucci" viewBox="0 0 140 33">
            <path fill="#fff"
                  d="m126.039 10.039-.26.082c-1.007-2.083-2.447-3.741-4.318-4.975-1.843-1.233-4.16-1.85-6.953-1.85-1.555 0-3.037.315-4.448.946a11.047 11.047 0 0 0-3.714 2.59c-1.036 1.096-1.872 2.426-2.505 3.988s-.95 3.289-.95 5.18c0 1.891.316 3.618.95 5.18s1.468 2.905 2.505 4.029c1.065 1.096 2.303 1.946 3.714 2.549s2.893.904 4.448.904c2.764 0 5.01-.411 6.737-1.233 1.756-.85 3.239-2.138 4.448-3.865l.26.082-.086 2.631a12.063 12.063 0 0 1-2.289 1.768c-.864.493-1.799.918-2.807 1.275-.979.329-2.001.576-3.066.74a17.994 17.994 0 0 1-3.196.288c-2.217 0-4.332-.343-6.348-1.028s-3.787-1.645-5.312-2.878a14.109 14.109 0 0 1-3.628-4.523c-.892-1.782-1.34-3.755-1.34-5.92s.447-4.125 1.34-5.879c.892-1.782 2.101-3.303 3.628-4.564s3.296-2.22 5.312-2.878a19.587 19.587 0 0 1 6.348-1.028c1.066 0 2.131.082 3.196.247s2.087.425 3.066.781a13.56 13.56 0 0 1 2.807 1.275 10.861 10.861 0 0 1 2.289 1.727l.172 4.358zm-95.165 7.852c-.317.137-.619.315-.907.535s-.432.521-.432.905v5.057c-1.382 1.891-3.153 3.358-5.312 4.399s-4.549 1.562-7.169 1.562c-2.217 0-4.333-.343-6.348-1.028s-3.786-1.645-5.312-2.878a14.109 14.109 0 0 1-3.628-4.523C.874 20.138.427 18.165.427 16s.446-4.125 1.339-5.879c.893-1.782 2.102-3.303 3.628-4.564s3.297-2.22 5.312-2.878a19.587 19.587 0 0 1 6.348-1.028c1.065 0 2.131.082 3.196.247s2.087.425 3.066.781a13.56 13.56 0 0 1 2.807 1.275 10.861 10.861 0 0 1 2.289 1.727l.173 4.358-.259.082c-1.008-2.083-2.447-3.741-4.319-4.975-1.843-1.233-4.16-1.85-6.953-1.85-1.555 0-3.037.315-4.448.946a11.047 11.047 0 0 0-3.714 2.59C7.855 7.928 7.021 9.258 6.387 10.82s-.95 3.289-.95 5.18c0 1.864.302 3.577.907 5.139.633 1.562 1.468 2.905 2.505 4.029a11.888 11.888 0 0 0 3.714 2.59c1.411.603 2.908.905 4.491.905 2.994 0 5.557-.548 7.687-1.645V19.33c0-.384-.158-.685-.475-.905a5.007 5.007 0 0 0-.864-.535l.039-.205c.144.025.403.052.777.082.375.025.763.052 1.166.082h3.714c.346-.025.677-.052.993-.082.317-.025.561-.052.734-.082l.047.206zm31.28-15.376c-.288.137-.576.315-.864.535s-.446.63-.475 1.233c-.026.658-.055 1.494-.086 2.508 0 .987-.013 2.11-.039 3.371 0 1.261-.013 2.631-.04 4.111v4.605c-.026 1.782-.257 3.303-.691 4.564-.432 1.261-1.008 2.316-1.727 3.166-.691.85-1.468 1.521-2.332 2.015a11.16 11.16 0 0 1-2.505 1.11 9.3 9.3 0 0 1-2.289.493c-.72.082-1.281.123-1.684.123-1.641 0-3.225-.206-4.751-.617-1.526-.384-2.865-1.014-4.016-1.891s-2.073-2.015-2.764-3.412c-.691-1.398-1.036-3.097-1.036-5.098v-8.922c0-1.316-.013-2.494-.039-3.536 0-1.069-.013-1.932-.04-2.59-.026-.603-.185-1.014-.475-1.233a5.007 5.007 0 0 0-.864-.535l.04-.205c.144.025.374.052.691.082.346.025.691.052 1.036.082.374 0 .734.013 1.08.038h1.555a14.97 14.97 0 0 1 1.08-.038c.374-.025.72-.052 1.037-.082.345-.025.59-.052.734-.082l.039.205a4.302 4.302 0 0 0-.907.535c-.259.219-.403.63-.432 1.233-.026.658-.055 1.521-.086 2.59V19.33c0 2.988.734 5.194 2.202 6.619s3.642 2.138 6.521 2.138c.835 0 1.785-.096 2.85-.288a7.78 7.78 0 0 0 2.98-1.316c.95-.658 1.742-1.59 2.375-2.796.662-1.206.993-2.809.993-4.81 0-2.165-.013-4.015-.04-5.55 0-1.562-.013-2.892-.039-3.988 0-1.124-.013-2.083-.039-2.878s-.055-1.521-.086-2.179c-.026-.603-.185-1.014-.475-1.233a5.007 5.007 0 0 0-.864-.535l.039-.205c.317.055.676.11 1.08.165.403.025.777.038 1.123.038.317 0 .676-.013 1.08-.038.432-.055.806-.11 1.123-.165l.027.206zm31.338 7.524-.26.082c-1.007-2.083-2.447-3.741-4.318-4.975-1.843-1.233-4.16-1.85-6.953-1.85-1.555 0-3.037.315-4.448.946a11.047 11.047 0 0 0-3.714 2.59c-1.036 1.096-1.871 2.426-2.505 3.988s-.95 3.289-.95 5.18.317 3.618.95 5.18c.633 1.562 1.468 2.905 2.505 4.029 1.065 1.096 2.303 1.946 3.714 2.549s2.894.904 4.448.904c2.764 0 5.01-.411 6.737-1.233 1.756-.85 3.239-2.138 4.448-3.865l.26.082-.086 2.631a12.095 12.095 0 0 1-2.289 1.768c-.864.493-1.8.918-2.807 1.275-.979.329-2.001.576-3.066.74-1.065.192-2.13.288-3.196.288-2.217 0-4.333-.343-6.348-1.028s-3.786-1.645-5.312-2.878a14.109 14.109 0 0 1-3.628-4.523c-.893-1.782-1.339-3.755-1.339-5.92s.446-4.125 1.339-5.879c.892-1.782 2.102-3.303 3.628-4.564s3.296-2.22 5.312-2.878a19.587 19.587 0 0 1 6.348-1.028c1.065 0 2.13.082 3.196.247s2.087.425 3.066.781c1.007.329 1.943.754 2.807 1.275A10.887 10.887 0 0 1 93.32 5.68l.172 4.358zm45.563 19.611a10.006 10.006 0 0 0-.733-.082c-.316 0-.662-.013-1.036-.038-.375 0-.735-.013-1.08-.038h-2.591c-.345.025-.691.052-1.036.082a8.467 8.467 0 0 0-.733.082l-.04-.165c.288-.137.576-.315.864-.535s.446-.63.475-1.233c.027-.658.039-1.343.039-2.056.027-.713.04-1.521.04-2.426V8.728c0-.904-.013-1.699-.04-2.385 0-.713-.012-1.398-.039-2.056-.027-.603-.185-1.014-.475-1.233a3.93 3.93 0 0 0-.864-.575l.04-.165c.172.055.417.096.733.123.346 0 .692.013 1.036.038.374.025.734.038 1.08.038h1.511a14.99 14.99 0 0 1 1.08-.038c.374-.025.72-.052 1.036-.082.345-.025.589-.052.733-.082l.04.165a3.632 3.632 0 0 0-.908.575c-.259.219-.403.63-.432 1.233-.026.658-.055 1.343-.086 2.056v19.323c.027.713.055 1.398.086 2.056.027.603.171 1.014.432 1.233.289.219.591.397.908.535l-.04.161z"
                  style="fill:var(--color1, #fff)"/>
        </symbol>
        <symbol id="icon-Icon" viewBox="0 0 32 32">
            <path stroke-linecap="round" stroke-linejoin="round"
                  stroke-width="3.817"
                  d="M29.333 16H2.666m0 0 13.333 13.333M2.666 16 15.999 2.667"/>
        </symbol>
        <symbol id="icon-mail" viewBox="0 0 32 32">
            <path d="M28 5.5H4A1.503 1.503 0 0 0 2.5 7v17A2.5 2.5 0 0 0 5 26.5h22a2.5 2.5 0 0 0 2.5-2.5V7A1.503 1.503 0 0 0 28 5.5zM16 15.965 7.856 8.5h16.287l-8.144 7.465zM11.599 16 5.5 21.59V10.41L11.599 16zm2.22 2.035 1.167 1.071a1.498 1.498 0 0 0 2.028 0l1.167-1.071 5.963 5.465H7.857l5.963-5.465zM20.401 16l6.099-5.59v11.18L20.401 16z"/>
        </symbol>
        <symbol id="icon-prada" viewBox="0 0 195 33">
            <path fill="#fff" stroke="#fff"
                  stroke-miterlimit="2.613" stroke-width="1.024"
                  d="m.482.902 2.932 3.307v24.202l-2.173 3.167 13.309.02-2.399-2.914-.249-8.716 12.833.07c3.89-1.295 7.889-4.056 8.081-9.638-.061-5.409-3.364-8.879-7.198-9.569L.482.902zM11.427 2.45v15.548l9.846.071c2.24-1.807 3.939-3.19 3.871-7.528-.032-3.537-.779-6.621-4.075-8.091l-9.642-.001zM38.975.725l2.932 3.308v24.202l-2.173 3.168 13.309.019-2.399-2.914-.249-8.716h.053l13.75 11.728 11.411-.093-10.415-9.008H56.5l-3.064-2.61 9.792.053c3.89-1.295 7.888-4.056 8.081-9.638-.061-5.409-3.363-8.879-7.198-9.568l-25.135.07zm10.944 1.548v15.548l9.846.071c2.241-1.807 3.939-3.19 3.871-7.529-.032-3.536-.779-6.621-4.075-8.091h-9.642zM86.595.691h11.476l14.938 27.72c.647 2.14 2.58 1.876 3.871 2.815h-14.464l2.174-.68-.136-2.064-3.735-5.981-12.698.071-2.716 5.77c-.091.656-.793 1.154-.272 1.969l1.019.985-6.247-.141 2.717-.844L92.774 8.712V7.234l-4.332-5.779-1.847-.764zm2.229 19.907 5.274-9.985 5.491 9.929-10.765.056zM164.197.751h11.475l14.939 27.72c.646 2.14 2.58 1.876 3.871 2.815h-14.465l2.174-.681-.136-2.064-3.735-5.979-12.698.071-2.716 5.768c-.091.658-.792 1.156-.272 1.971l1.019.985-6.246-.141 2.716-.844 10.253-21.599V7.294l-4.332-5.778-1.847-.764zm2.228 19.908 5.274-9.985 5.492 9.928-10.766.058zM120.849.402l20.443.113c6.583 1.542 10.772 5.564 12.071 12.58l-.055 5.472c-1.2 6.252-5.133 10.565-12.07 12.749l-20.498.058-.003-.662c3.116-.235 3.365-.591 3.373-2.441V3.336c-.035-1.368-.308-2.219-3.316-2.313l.055-.62zm11.62 2.134-.019 26.978c2.696.009 5.035.262 6.356-.413 2.995-1.368 4.385-3.468 4.513-5.441l-.072-15.93c.001-2.548-2.765-4.347-4.362-4.816-1.142-.423-3.42-.441-6.416-.378z"
                  style="fill:var(--color1, #fff);stroke:var(--color1, #fff)"/>
        </symbol>
        <symbol id="icon-profile" viewBox="0 0 32 32">
            <path d="M16 2.5a13.502 13.502 0 0 0-12.472 8.334 13.497 13.497 0 0 0 2.927 14.712 13.5 13.5 0 0 0 23.046-9.545 13.512 13.512 0 0 0-13.5-13.5zM9.946 24.571c.696-.952 1.607-1.727 2.659-2.26s2.215-.812 3.394-.812a7.493 7.493 0 0 1 6.053 3.072 10.464 10.464 0 0 1-12.108 0zM12.5 15a3.494 3.494 0 0 1 2.161-3.233 3.498 3.498 0 0 1 4.772 2.551A3.498 3.498 0 0 1 16 18.501a3.502 3.502 0 0 1-3.5-3.5zm11.75 7.493a10.435 10.435 0 0 0-3.625-2.928 6.498 6.498 0 0 0-4.626-11.067 6.498 6.498 0 0 0-5.998 3.994 6.496 6.496 0 0 0 1.372 7.073 10.424 10.424 0 0 0-3.625 2.928 10.503 10.503 0 0 1-1.205-11.084 10.501 10.501 0 1 1 17.693 11.084h.013z"/>
        </symbol>
        <symbol id="icon-rhomb" viewBox="0 0 32 32">
            <path d="M16 0c.543 8.602 7.398 15.457 16 16-8.602.543-15.457 7.398-16 16-.543-8.602-7.398-15.457-16-16 8.602-.543 15.457-7.398 16-16z"/>
        </symbol>
        <symbol id="icon-search" viewBox="0 0 32 32">
            <path stroke-width="1.333"
                  d="M29.061 26.939 23.125 21a11.512 11.512 0 0 0-1.543-15.668 11.517 11.517 0 0 0-15.735.514 11.512 11.512 0 0 0 7.015 19.602c2.91.287 5.819-.544 8.139-2.324l5.941 5.942a1.5 1.5 0 0 0 2.124 0 1.493 1.493 0 0 0 .326-1.637 1.484 1.484 0 0 0-.326-.487l-.005-.004zM5.5 14c0-1.681.498-3.325 1.433-4.722s2.261-2.487 3.815-3.131a8.502 8.502 0 0 1 9.263 1.842 8.498 8.498 0 0 1-1.289 13.078A8.5 8.5 0 0 1 14 22.5 8.51 8.51 0 0 1 5.5 14z"/>
        </symbol>
        <symbol id="icon-star" viewBox="0 0 36 32">
            <path fill="#ffc633"
                  d="m17.402.48 4.93 10.616 11.62 1.408-8.573 7.97 2.251 11.487-10.229-5.691-10.229 5.691 2.251-11.487-8.573-7.97 11.62-1.408L17.4.48z"
                  style="fill:var(--color15, #ffc633)"/>
        </symbol>
        <symbol id="icon-starHalf" viewBox="0 0 19 32">
            <path fill="#ffc633"
                  d="m7.085 31.961 10.229-5.691V.48l-4.93 10.616-11.62 1.408 8.573 7.97-2.251 11.487z"
                  style="fill:var(--color15, #ffc633)"/>
        </symbol>
        <symbol id="icon-trash" viewBox="0 0 32 32">
            <path d="M27 6h-5V5a3.004 3.004 0 0 0-3-3h-6a3.004 3.004 0 0 0-3 3v1H5a.997.997 0 0 0-1 1 .997.997 0 0 0 1 1h1v18a2 2 0 0 0 2 2h16a2 2 0 0 0 2-2V8h1a.997.997 0 0 0 1-1 .997.997 0 0 0-1-1zM14 21a.997.997 0 0 1-1 1 .997.997 0 0 1-1-1v-8a.997.997 0 0 1 1-1 .997.997 0 0 1 1 1v8zm6 0a.997.997 0 0 1-1 1 .997.997 0 0 1-1-1v-8a.997.997 0 0 1 1-1 .997.997 0 0 1 1 1v8zm0-15h-8V5a.997.997 0 0 1 1-1h6a.997.997 0 0 1 1 1v1z"/>
        </symbol>
        <symbol id="icon-versace" viewBox="0 0 157 33">
            <path fill="#fff"
                  d="M141.345.617h15.344v2.445a4.368 4.368 0 0 0-1.383-.228h-8.82v11.424h8.58c.616 0 1.165-.068 1.622-.183v2.434c-.389-.091-.924-.137-1.588-.137h-8.614v11.813h8.556a7.12 7.12 0 0 0 1.645-.217v2.628h-15.32c.122-.462.184-.938.184-1.416V2.068c0-.594-.069-1.085-.206-1.451zm-3.552 7.78-4.433-.034c-.217-2.491-1.645-4.903-4.787-5.347-6.729-.606-8.626 6.785-8.455 12.19.172 5.209 1.005 13.218 7.952 13.218 2.914 0 5.712-2.994 5.621-5.518l4.102-.034c-.297 5.209-6.272 8.225-9.117 8.328-9.721.332-13.79-6.147-13.995-15.39-.183-8.373 3.245-15.811 12.853-15.811 8.226.115 9.814 4.982 10.26 8.397zM68.65 27.191l2.937-2.456c1.53 2.525 2.787 3.678 5.826 3.678 3.084 0 5.678-1.873 5.678-5.186 0-1.634-.663-2.971-1.977-3.976-.595-.469-2.103-1.28-4.479-2.411-3.553-1.702-7.014-3.919-7.014-8.374 0-5.621 4.775-8.101 9.813-8.284 2.982-.114 6.684 1.532 8.18 3.382L84.632 5.86a6.232 6.232 0 0 0-5.484-3.289c-3.805 0-6.821 4.41-3.668 7.449.799.777 2.434 1.736 4.925 2.878 3.975 1.863 7.368 4.09 7.368 9.014 0 1.702-.446 3.29-1.325 4.741-1.77 2.925-4.73 4.387-8.865 4.387-4.753 0-5.689-1.085-8.935-3.851zM26.813.617h15.331v2.445a4.357 4.357 0 0 0-1.382-.228h-8.819v11.424h8.58c.617 0 1.166-.068 1.622-.183v2.434c-.389-.091-.925-.137-1.576-.137h-8.626v11.813H40.5c.468 0 1.029-.068 1.645-.217v2.628H26.837c.112-.464.169-.939.171-1.416V2.068c0-.594-.069-1.085-.194-1.451zM0 .617h5.575v.275c0 .251.08.582.217 1.005l7.859 23.66 8.066-23.764c.125-.399.194-.788.194-1.177h2.708c-.274.48-.48.903-.606 1.28l-9.209 27.477c-.091.263-.171.674-.239 1.223h-4.57a7.71 7.71 0 0 0-.308-1.223L.662 2.113A45.122 45.122 0 0 0 .01.616h-.011zm59.214 15.63c3.656-.72 6.455-3.519 6.455-7.518 0-5.245-4.387-8.113-9.3-8.113h-8.98c.125.458.194.937.194 1.44v27.099c0 .583-.069 1.074-.194 1.44h5.347a5.269 5.269 0 0 1-.194-1.44V16.703l1.713.183 8.958 13.709h5.381l-9.38-14.349zm-.926-2.285c-.971.685-2.137 1.027-3.473 1.027H52.53V2.801h2.045c1.749 0 3.108.433 4.079 1.301 1.325 1.201 1.999 2.823 1.999 4.856 0 2.194-.789 3.862-2.365 5.004zm55.501 15.389-9.984-27.739a3.628 3.628 0 0 1-.195-.994h-4.319c0 .354-.057.731-.195 1.108L89.42 29.352a5.476 5.476 0 0 1-.606 1.245h2.787c-.011-.457.046-.88.172-1.245l2.866-8.147h11.025l2.834 8.147c.149.444.216.856.216 1.244h5.782c-.332-.468-.571-.891-.709-1.245zM95.396 18.999l4.661-13.538 4.788 13.538h-9.448z"
                  style="fill:var(--color1, #fff)"/>
        </symbol>
        <symbol id="icon-zara" viewBox="0 0 77 33">
            <path fill="#fff"
                  d="M73.107 31.047 61.746.007h-.224l-6.594 17.979-.01-.009c-1.475-1.292-3.556-2.099-6.178-2.4l-.799-.082.793-.101c4.322-.771 7.228-3.48 7.228-6.744 0-4.476-4.242-7.6-10.319-7.6H33v.227h3.674v23.127L27.744.006h-.224l-11.356 30.96-.055.006a9.287 9.287 0 0 1-.457.045 8.563 8.563 0 0 1-.679.028H5.862L23.31 1.052H2.127v9.209h.225c.04-4.486 2.672-8.985 8.489-8.985h7.017L.407 31.269h23.509v-8.823h-.225c-.031 3.91-2.264 7.623-7.121 8.462l-.154.026 3.699-10.089h10.361l3.733 10.201h-3.683v.223h14.455v-.223h-3.699V15.659h4.268c4.343 0 6.834 1.925 6.834 5.281v2.73c0 .301.021.74.043 1.108v.013l-2.294 6.254h-2.997v.223h6.203v-.223h-2.964l2.089-5.695.006.088.058.513.056.339c.349 2.1 1.158 3.644 2.405 4.588l.179.129c.947.654 2.125.985 3.501.985 1.823 0 3.039-.451 4.042-1.513l-.132-.123c-.925.847-1.701 1.19-2.673 1.19-1.657 0-2.524-1.994-2.524-3.96v-3.824a8.526 8.526 0 0 0-.443-2.793l-.041-.119v-.004h7.579l3.733 10.201h-3.683v.223h12.509v-.223l-3.931-.001zM20.196 20.623 25.3 6.707l5.093 13.916H20.196zm21.089-5.187V1.277h3.258c4.352 0 6.649 2.567 6.649 7.421 0 5.163-1.319 6.737-5.641 6.737h-4.266zm15.525 5.187-.022-.055a6.897 6.897 0 0 0-1.445-2.188l-.213-.212-.023-.021 4.192-11.44 5.093 13.916H56.81z"
                  style="fill:var(--color1, #fff)"/>
        </symbol>
        <symbol id="icon-close" viewBox="0 0 20 20">
            <path d="M16.2882 14.9617C16.4644 15.1378 16.5633 15.3767 16.5633 15.6258C16.5633 15.8749 16.4644 16.1137 16.2882 16.2898C16.1121 16.466 15.8733 16.5649 15.6242 16.5649C15.3751 16.5649 15.1362 16.466 14.9601 16.2898L9.99997 11.3281L5.03825 16.2883C4.86213 16.4644 4.62326 16.5633 4.37418 16.5633C4.12511 16.5633 3.88624 16.4644 3.71012 16.2883C3.534 16.1122 3.43506 15.8733 3.43506 15.6242C3.43506 15.3751 3.534 15.1363 3.71012 14.9602L8.67184 10L3.71168 5.03828C3.53556 4.86216 3.43662 4.62329 3.43662 4.37422C3.43662 4.12515 3.53556 3.88628 3.71168 3.71016C3.8878 3.53404 4.12668 3.43509 4.37575 3.43509C4.62482 3.43509 4.86369 3.53404 5.03981 3.71016L9.99997 8.67188L14.9617 3.70938C15.1378 3.53326 15.3767 3.43431 15.6257 3.43431C15.8748 3.43431 16.1137 3.53326 16.2898 3.70938C16.4659 3.8855 16.5649 4.12437 16.5649 4.37344C16.5649 4.62251 16.4659 4.86138 16.2898 5.0375L11.3281 10L16.2882 14.9617Z"/>
        </symbol>
        <symbol id="icon-arrow" viewBox="0 0 16 16">
            <path d="M13.5306 6.53063L8.5306 11.5306C8.46092 11.6005 8.37813 11.656 8.28696 11.6939C8.1958 11.7317 8.09806 11.7512 7.99935 11.7512C7.90064 11.7512 7.8029 11.7317 7.71173 11.6939C7.62057 11.656 7.53778 11.6005 7.4681 11.5306L2.4681 6.53063C2.3272 6.38973 2.24805 6.19864 2.24805 5.99938C2.24805 5.80012 2.3272 5.60902 2.4681 5.46813C2.60899 5.32723 2.80009 5.24808 2.99935 5.24808C3.19861 5.24808 3.3897 5.32723 3.5306 5.46813L7.99997 9.9375L12.4693 5.4675C12.6102 5.32661 12.8013 5.24745 13.0006 5.24745C13.1999 5.24745 13.391 5.32661 13.5318 5.4675C13.6727 5.6084 13.7519 5.7995 13.7519 5.99875C13.7519 6.19801 13.6727 6.38911 13.5318 6.53L13.5306 6.53063Z"/>
        </symbol>
        <symbol id="icon-facebook" viewBox="0 0 8 13">
            <path
                    d="M2.70873 12.8875V7.334H0.839844V5.16968H2.70873V3.57355C2.70873 1.72126 3.84005 0.712646 5.49242 0.712646C6.28392 0.712646 6.96418 0.771576 7.16243 0.797915V2.73367L6.01642 2.73419C5.11776 2.73419 4.94376 3.16122 4.94376 3.78785V5.16968H7.08697L6.80791 7.334H4.94376V12.8875H2.70873Z"/>
        </symbol>
        <symbol id="icon-instagram" viewBox="0 0 32 32">
            <path d="M16 0c-4.347 0-4.889 0.020-6.596 0.096-1.704 0.080-2.864 0.348-3.884 0.744-1.052 0.408-1.945 0.956-2.835 1.845s-1.439 1.781-1.845 2.835c-0.396 1.020-0.665 2.18-0.744 3.884-0.080 1.707-0.096 2.249-0.096 6.596s0.020 4.889 0.096 6.596c0.080 1.703 0.348 2.864 0.744 3.884 0.408 1.051 0.956 1.945 1.845 2.835 0.889 0.888 1.781 1.439 2.835 1.845 1.021 0.395 2.181 0.665 3.884 0.744 1.707 0.080 2.249 0.096 6.596 0.096s4.889-0.020 6.596-0.096c1.703-0.080 2.864-0.349 3.884-0.744 1.051-0.408 1.945-0.957 2.835-1.845 0.888-0.889 1.439-1.78 1.845-2.835 0.395-1.020 0.665-2.181 0.744-3.884 0.080-1.707 0.096-2.249 0.096-6.596s-0.020-4.889-0.096-6.596c-0.080-1.703-0.349-2.865-0.744-3.884-0.408-1.052-0.957-1.945-1.845-2.835-0.889-0.889-1.78-1.439-2.835-1.845-1.020-0.396-2.181-0.665-3.884-0.744-1.707-0.080-2.249-0.096-6.596-0.096zM16 2.88c4.271 0 4.78 0.021 6.467 0.095 1.56 0.073 2.407 0.332 2.969 0.553 0.749 0.289 1.28 0.636 1.843 1.195 0.559 0.56 0.905 1.092 1.195 1.841 0.219 0.563 0.48 1.409 0.551 2.969 0.076 1.688 0.093 2.195 0.093 6.467s-0.020 4.78-0.099 6.467c-0.081 1.56-0.341 2.407-0.561 2.969-0.299 0.749-0.639 1.28-1.199 1.843-0.559 0.559-1.099 0.905-1.84 1.195-0.56 0.219-1.42 0.48-2.98 0.551-1.699 0.076-2.199 0.093-6.479 0.093-4.281 0-4.781-0.020-6.479-0.099-1.561-0.081-2.421-0.341-2.981-0.561-0.759-0.299-1.28-0.639-1.839-1.199-0.561-0.559-0.92-1.099-1.2-1.84-0.22-0.56-0.479-1.42-0.56-2.98-0.060-1.68-0.081-2.199-0.081-6.459 0-4.261 0.021-4.781 0.081-6.481 0.081-1.56 0.34-2.419 0.56-2.979 0.28-0.76 0.639-1.28 1.2-1.841 0.559-0.559 1.080-0.919 1.839-1.197 0.56-0.221 1.401-0.481 2.961-0.561 1.7-0.060 2.2-0.080 6.479-0.080zM16 7.784c-4.54 0-8.216 3.68-8.216 8.216 0 4.54 3.68 8.216 8.216 8.216 4.54 0 8.216-3.68 8.216-8.216 0-4.54-3.68-8.216-8.216-8.216zM16 21.333c-2.947 0-5.333-2.387-5.333-5.333s2.387-5.333 5.333-5.333 5.333 2.387 5.333 5.333-2.387 5.333-5.333 5.333zM26.461 7.46c0 1.060-0.861 1.92-1.92 1.92-1.060 0-1.92-0.861-1.92-1.92s0.861-1.919 1.92-1.919c1.057-0.001 1.92 0.86 1.92 1.919z"/>
        </symbol>
        <symbol id="icon-twitter" viewBox="0 0 32 32">
            <path d="M32 7.075c-1.175 0.525-2.444 0.875-3.769 1.031 1.356-0.813 2.394-2.1 2.887-3.631-1.269 0.75-2.675 1.3-4.169 1.594-1.2-1.275-2.906-2.069-4.794-2.069-3.625 0-6.563 2.938-6.563 6.563 0 0.512 0.056 1.012 0.169 1.494-5.456-0.275-10.294-2.888-13.531-6.862-0.563 0.969-0.887 2.1-0.887 3.3 0 2.275 1.156 4.287 2.919 5.463-1.075-0.031-2.087-0.331-2.975-0.819 0 0.025 0 0.056 0 0.081 0 3.181 2.263 5.838 5.269 6.437-0.55 0.15-1.131 0.231-1.731 0.231-0.425 0-0.831-0.044-1.237-0.119 0.838 2.606 3.263 4.506 6.131 4.563-2.25 1.762-5.075 2.813-8.156 2.813-0.531 0-1.050-0.031-1.569-0.094 2.913 1.869 6.362 2.95 10.069 2.95 12.075 0 18.681-10.006 18.681-18.681 0-0.287-0.006-0.569-0.019-0.85 1.281-0.919 2.394-2.075 3.275-3.394z"/>
        </symbol>
        <symbol id="icon-github" viewBox="0 0 32 32">
            <path d="M16 0.395c-8.836 0-16 7.163-16 16 0 7.069 4.585 13.067 10.942 15.182 0.8 0.148 1.094-0.347 1.094-0.77 0-0.381-0.015-1.642-0.022-2.979-4.452 0.968-5.391-1.888-5.391-1.888-0.728-1.849-1.776-2.341-1.776-2.341-1.452-0.993 0.11-0.973 0.11-0.973 1.606 0.113 2.452 1.649 2.452 1.649 1.427 2.446 3.743 1.739 4.656 1.33 0.143-1.034 0.558-1.74 1.016-2.14-3.554-0.404-7.29-1.777-7.29-7.907 0-1.747 0.625-3.174 1.649-4.295-0.166-0.403-0.714-2.030 0.155-4.234 0 0 1.344-0.43 4.401 1.64 1.276-0.355 2.645-0.532 4.005-0.539 1.359 0.006 2.729 0.184 4.008 0.539 3.054-2.070 4.395-1.64 4.395-1.64 0.871 2.204 0.323 3.831 0.157 4.234 1.026 1.12 1.647 2.548 1.647 4.295 0 6.145-3.743 7.498-7.306 7.895 0.574 0.497 1.085 1.47 1.085 2.963 0 2.141-0.019 3.864-0.019 4.391 0 0.426 0.288 0.925 1.099 0.768 6.354-2.118 10.933-8.113 10.933-15.18 0-8.837-7.164-16-16-16z"/>
        </symbol>
        <symbol id="icon-burger-menu" viewBox="0 0 24 24">
            <path d="M21.375 12C21.375 12.2984 21.2565 12.5845 21.0455 12.7955C20.8345 13.0065 20.5484 13.125 20.25 13.125H3.75C3.45163 13.125 3.16548 13.0065 2.9545 12.7955C2.74353 12.5845 2.625 12.2984 2.625 12C2.625 11.7016 2.74353 11.4155 2.9545 11.2045C3.16548 10.9935 3.45163 10.875 3.75 10.875H20.25C20.5484 10.875 20.8345 10.9935 21.0455 11.2045C21.2565 11.4155 21.375 11.7016 21.375 12ZM3.75 7.125H20.25C20.5484 7.125 20.8345 7.00647 21.0455 6.7955C21.2565 6.58452 21.375 6.29837 21.375 6C21.375 5.70163 21.2565 5.41548 21.0455 5.2045C20.8345 4.99353 20.5484 4.875 20.25 4.875H3.75C3.45163 4.875 3.16548 4.99353 2.9545 5.2045C2.74353 5.41548 2.625 5.70163 2.625 6C2.625 6.29837 2.74353 6.58452 2.9545 6.7955C3.16548 7.00647 3.45163 7.125 3.75 7.125ZM20.25 16.875H3.75C3.45163 16.875 3.16548 16.9935 2.9545 17.2045C2.74353 17.4155 2.625 17.7016 2.625 18C2.625 18.2984 2.74353 18.5845 2.9545 18.7955C3.16548 19.0065 3.45163 19.125 3.75 19.125H20.25C20.5484 19.125 20.8345 19.0065 21.0455 18.7955C21.2565 18.5845 21.375 18.2984 21.375 18C21.375 17.7016 21.2565 17.4155 21.0455 17.2045C20.8345 16.9935 20.5484 16.875 20.25 16.875Z"/>
        </symbol>
        <symbol id="icon-visa" viewBox="0 0 47 30">
            <path fill="#fff"
                  d="M4.972 2.119h33.149a4.972 4.972 0 0 1 4.972 4.972v17.818a4.972 4.972 0 0 1-4.972 4.972H4.972A4.972 4.972 0 0 1 0 24.909V7.091a4.972 4.972 0 0 1 4.972-4.972z"
                  style="fill:var(--color1, #fff)"/>
            <path fill="#1434cb"
                  d="m21.283 11.475-2.01 9.396h-2.431l2.01-9.396h2.43zm10.227 6.067 1.28-3.528.736 3.528H31.51zm2.712 3.329h2.248l-1.962-9.396h-2.075c-.466 0-.86.271-1.035.689l-3.647 8.707h2.552l.507-1.403h3.118l.293 1.403zm-6.344-3.067c.01-2.48-3.429-2.616-3.406-3.724.007-.338.329-.696 1.031-.787.349-.045 1.308-.08 2.397.421l.426-1.992a6.541 6.541 0 0 0-2.274-.417c-2.402 0-4.093 1.277-4.107 3.106-.015 1.353 1.207 2.107 2.128 2.557.947.461 1.265.756 1.261 1.168-.006.631-.755.908-1.454.919-1.222.019-1.931-.33-2.497-.593l-.44 2.059c.568.261 1.616.487 2.704.499 2.553 0 4.223-1.262 4.232-3.215zM17.81 11.475l-3.938 9.396h-2.57l-1.938-7.499c-.118-.462-.22-.631-.578-.826-.584-.317-1.549-.614-2.398-.799l.058-.273h4.136c.527 0 1.001.351 1.121.958l1.024 5.438 2.529-6.395h2.554z"
                  style="fill:var(--color2, #1434cb)"/>
        </symbol>
        <symbol id="icon-mastercard" viewBox="0 0 47 30">
            <path fill="#fff"
                  d="M4.972 2.119h33.149a4.972 4.972 0 0 1 4.972 4.972v17.818a4.972 4.972 0 0 1-4.972 4.972H4.972A4.972 4.972 0 0 1 0 24.909V7.091a4.972 4.972 0 0 1 4.972-4.972z"
                  style="fill:var(--color1, #fff)"/>
            <path fill="#ff5f00"
                  d="M24.642 10.299h-6.345v11.402h6.345V10.299z"
                  style="fill:var(--color3, #ff5f00)"/>
            <path fill="#eb001b"
                  d="M18.7 16a7.24 7.24 0 0 1 2.77-5.701 7.248 7.248 0 0 0-10.627 1.854 7.248 7.248 0 0 0 2.977 10.369 7.25 7.25 0 0 0 7.65-.821A7.245 7.245 0 0 1 18.7 16z"
                  style="fill:var(--color4, #eb001b)"/>
            <path fill="#f79e1b"
                  d="M33.202 16a7.248 7.248 0 0 1-4.082 6.522 7.25 7.25 0 0 1-7.65-.821A7.256 7.256 0 0 0 24.24 16a7.25 7.25 0 0 0-2.77-5.701 7.248 7.248 0 0 1 10.627 1.854A7.26 7.26 0 0 1 33.202 16zM32.51 20.493v-.233h.094v-.048h-.24v.048h.094v.233h.051zm.466 0v-.282h-.073l-.084.194-.085-.194h-.073v.282h.052v-.212l.079.183h.054l.079-.183v.213h.052z"
                  style="fill:var(--color5, #f79e1b)"/>
        </symbol>
        <symbol id="icon-paypal" viewBox="0 0 47 30">
            <path fill="#fff"
                  d="M4.972 2.119h33.149a4.972 4.972 0 0 1 4.972 4.972v17.818a4.972 4.972 0 0 1-4.972 4.972H4.972A4.972 4.972 0 0 1 0 24.909V7.091a4.972 4.972 0 0 1 4.972-4.972z"
                  style="fill:var(--color1, #fff)"/>
            <path fill="#253b80"
                  d="M9.427 11.961H6.942a.344.344 0 0 0-.341.291l-1.005 6.37a.206.206 0 0 0 .205.239h1.186c.17 0 .315-.123.341-.292l.271-1.718a.345.345 0 0 1 .341-.292h.787c1.637 0 2.581-.792 2.828-2.361.111-.687.005-1.226-.317-1.604-.353-.415-.979-.634-1.811-.634zm.287 2.326c-.136.891-.817.891-1.476.891h-.375l.263-1.665a.207.207 0 0 1 .204-.175h.172c.449 0 .872 0 1.091.256.13.153.17.379.121.692zm7.14-.028h-1.19a.208.208 0 0 0-.205.175l-.053.333-.083-.121c-.258-.374-.832-.499-1.405-.499-1.315 0-2.438.996-2.656 2.392-.114.697.048 1.363.443 1.827.363.427.881.605 1.499.605 1.059 0 1.647-.681 1.647-.681l-.053.331c-.02.126.077.24.204.24h1.072a.344.344 0 0 0 .341-.292l.643-4.072a.207.207 0 0 0-.204-.239zm-1.659 2.315a1.326 1.326 0 0 1-1.342 1.136c-.345 0-.622-.111-.799-.321-.176-.208-.243-.505-.187-.836a1.332 1.332 0 0 1 1.333-1.145c.338 0 .612.112.793.324.181.214.253.513.201.842zm6.8-2.315h1.196c.168 0 .265.188.17.325l-3.977 5.739a.345.345 0 0 1-.284.148h-1.194a.207.207 0 0 1-.169-.327l1.238-1.748-1.317-3.864a.208.208 0 0 1 .197-.274h1.175c.153 0 .287.1.331.246l.699 2.334 1.649-2.429a.346.346 0 0 1 .286-.151z"
                  style="fill:var(--color6, #253b80)"/>
            <path fill="#179bd7"
                  d="m34.958 18.622 1.02-6.487a.207.207 0 0 1 .204-.175h1.148c.127 0 .224.114.204.239l-1.006 6.37a.345.345 0 0 1-.341.292h-1.025a.206.206 0 0 1-.204-.239zm-7.809-6.662h-2.485a.345.345 0 0 0-.341.291l-1.005 6.37a.206.206 0 0 0 .204.239h1.275a.24.24 0 0 0 .238-.204l.285-1.806a.345.345 0 0 1 .341-.292h.786c1.637 0 2.581-.792 2.828-2.361.111-.687.004-1.226-.317-1.604-.353-.415-.979-.634-1.81-.634zm.287 2.327c-.136.891-.817.891-1.476.891h-.375l.263-1.665a.206.206 0 0 1 .204-.175h.172c.448 0 .872 0 1.091.256.13.153.17.379.12.692zm7.14-.029h-1.189a.206.206 0 0 0-.204.175l-.053.333-.084-.121c-.258-.374-.831-.499-1.405-.499-1.315 0-2.438.996-2.656 2.392-.113.697.047 1.363.443 1.827.363.427.881.605 1.499.605 1.059 0 1.647-.681 1.647-.681l-.053.331c-.02.126.077.24.205.24h1.071c.17 0 .314-.123.341-.292l.643-4.072a.207.207 0 0 0-.205-.239zm-1.659 2.316a1.325 1.325 0 0 1-1.342 1.136c-.345 0-.622-.111-.799-.321-.176-.208-.242-.505-.187-.836a1.332 1.332 0 0 1 1.333-1.145c.338 0 .612.112.794.324.182.214.254.513.201.842z"
                  style="fill:var(--color7, #179bd7)"/>
        </symbol>
        <symbol id="icon-apple-pay" viewBox="0 0 47 30">
            <path fill="#fff"
                  d="M4.972 2.119h33.149a4.972 4.972 0 0 1 4.972 4.972v17.818a4.972 4.972 0 0 1-4.972 4.972H4.972A4.972 4.972 0 0 1 0 24.909V7.091a4.972 4.972 0 0 1 4.972-4.972z"
                  style="fill:var(--color1, #fff)"/>
            <path fill="#000008"
                  d="M13.938 12.364c.287-.36.483-.842.431-1.336-.421.021-.934.278-1.232.638-.267.308-.503.811-.442 1.284.472.041.944-.236 1.242-.586zM14.364 13.042c-.686-.041-1.27.389-1.597.389s-.83-.369-1.372-.359c-.706.01-1.362.41-1.72 1.045-.737 1.271-.194 3.155.522 4.19.348.512.768 1.076 1.321 1.055.522-.021.727-.338 1.362-.338s.819.338 1.372.328c.573-.01.932-.512 1.28-1.025.399-.584.563-1.147.573-1.178-.01-.01-1.106-.43-1.116-1.691-.01-1.055.86-1.557.901-1.588-.492-.727-1.259-.809-1.526-.829zM20.338 11.614c1.491 0 2.53 1.028 2.53 2.525 0 1.502-1.06 2.535-2.567 2.535H18.65V19.3h-1.193v-7.685h2.881zm-1.688 4.058h1.369c1.039 0 1.63-.559 1.63-1.529s-.591-1.523-1.624-1.523h-1.374v3.052zM23.179 17.707c0-.98.751-1.582 2.083-1.656l1.534-.091v-.431c0-.623-.421-.996-1.124-.996-.666 0-1.081.319-1.182.82h-1.086c.064-1.012.927-1.758 2.311-1.758 1.358 0 2.226.719 2.226 1.843v3.861h-1.103v-.921h-.027c-.325.623-1.033 1.017-1.768 1.017-1.097 0-1.864-.682-1.864-1.688zm3.617-.506v-.442l-1.38.085c-.687.048-1.076.351-1.076.831 0 .49.405.81 1.023.81.804 0 1.433-.554 1.433-1.284zM28.982 21.36v-.932c.085.021.277.021.373.021.533 0 .82-.224.996-.799 0-.011.101-.341.101-.346l-2.024-5.608h1.246l1.417 4.559h.021l1.417-4.559h1.214l-2.099 5.896c-.479 1.358-1.033 1.795-2.194 1.795-.096 0-.384-.011-.469-.027z"
                  style="fill:var(--color8, #000008)"/>
        </symbol>
        <symbol id="icon-promocode" viewBox="0 0 24 24">
            <path d="M23.0766 12.4857L13.7653 3.17444C13.5917 2.9997 13.3851 2.86115 13.1576 2.76685C12.93 2.67254 12.686 2.62435 12.4397 2.62507H3.75001C3.45164 2.62507 3.16549 2.7436 2.95451 2.95457C2.74353 3.16555 2.62501 3.4517 2.62501 3.75007V12.4398C2.62429 12.6861 2.67248 12.9301 2.76679 13.1576C2.86109 13.3852 2.99963 13.5918 3.17438 13.7654L12.4856 23.0766C12.8372 23.4281 13.3141 23.6256 13.8113 23.6256C14.3084 23.6256 14.7853 23.4281 15.1369 23.0766L23.0766 15.1369C23.4281 14.7853 23.6255 14.3085 23.6255 13.8113C23.6255 13.3141 23.4281 12.8373 23.0766 12.4857ZM13.8113 21.2204L4.87501 12.2813V4.87507H12.2813L21.2175 13.8113L13.8113 21.2204ZM9.37501 7.87507C9.37501 8.17174 9.28703 8.46175 9.12221 8.70842C8.95739 8.9551 8.72312 9.14736 8.44903 9.26089C8.17494 9.37442 7.87334 9.40412 7.58237 9.34625C7.2914 9.28837 7.02413 9.14551 6.81435 8.93573C6.60457 8.72595 6.46171 8.45868 6.40383 8.1677C6.34595 7.87673 6.37566 7.57513 6.48919 7.30104C6.60272 7.02695 6.79498 6.79269 7.04165 6.62786C7.28833 6.46304 7.57834 6.37507 7.87501 6.37507C8.27283 6.37507 8.65436 6.5331 8.93567 6.81441C9.21697 7.09571 9.37501 7.47724 9.37501 7.87507Z"
            />
        </symbol>
        <symbol id="icon-google-pay" viewBox="0 0 47 30">
            <path fill="#fff"
                  d="M4.972 2.119h33.149a4.972 4.972 0 0 1 4.972 4.972v17.818a4.972 4.972 0 0 1-4.972 4.972H4.972A4.972 4.972 0 0 1 0 24.909V7.091a4.972 4.972 0 0 1 4.972-4.972z"
                  style="fill:var(--color1, #fff)"/>
            <path fill="#3c4043"
                  d="M20.61 19.327h-.969v-7.542h2.57c.651 0 1.207.217 1.661.651.464.434.697.964.697 1.59 0 .641-.232 1.171-.697 1.6-.449.429-1.005.641-1.661.641h-1.6v3.059zm0-6.613v2.63h1.62c.384 0 .707-.131.959-.389.257-.257.389-.57.389-.924 0-.348-.131-.656-.389-.914-.252-.268-.57-.399-.959-.399h-1.62v-.005zM27.102 13.996c.717 0 1.282.192 1.696.575s.621.909.621 1.575v3.18h-.924v-.717h-.04c-.399.591-.934.883-1.6.883-.57 0-1.045-.167-1.429-.505s-.576-.757-.576-1.262c0-.535.202-.959.606-1.272.404-.318.944-.475 1.615-.475.576 0 1.05.106 1.419.318v-.222c0-.338-.131-.621-.399-.858s-.581-.353-.939-.353c-.54 0-.969.227-1.282.687l-.853-.535c.469-.682 1.166-1.02 2.085-1.02zm-1.252 3.746c0 .252.106.464.323.631.212.167.464.252.752.252.409 0 .772-.151 1.09-.454s.48-.656.48-1.065c-.303-.237-.722-.358-1.262-.358-.394 0-.722.096-.984.283-.268.197-.399.434-.399.712zM34.69 14.163l-3.231 7.431h-1l1.202-2.6-2.13-4.831h1.055l1.535 3.705h.02l1.494-3.705h1.055z"
                  style="fill:var(--color9, #3c4043)"/>
            <path fill="#4285f4"
                  d="M16.755 15.657c0-.316-.028-.618-.081-.909h-4.063v1.666l2.34.001a2.005 2.005 0 0 1-.868 1.342v1.081h1.393c.813-.753 1.279-1.865 1.279-3.18z"
                  style="fill:var(--color10, #4285f4)"/>
            <path fill="#34a853"
                  d="M14.083 17.756c-.388.262-.887.414-1.471.414-1.128 0-2.085-.76-2.428-1.785H8.747V17.5a4.325 4.325 0 0 0 3.865 2.382c1.168 0 2.149-.384 2.864-1.046l-1.393-1.08z"
                  style="fill:var(--color11, #34a853)"/>
            <path fill="#fabb05"
                  d="M10.049 15.559c0-.288.048-.566.135-.827v-1.115H8.747c-.294.584-.46 1.243-.46 1.942s.166 1.358.46 1.942l1.437-1.115a2.62 2.62 0 0 1-.135-.827z"
                  style="fill:var(--color12, #fabb05)"/>
            <path fill="#e94235"
                  d="M12.612 12.946c.637 0 1.209.22 1.659.649l1.234-1.233a4.157 4.157 0 0 0-2.894-1.127c-1.69 0-3.153.969-3.865 2.382l1.437 1.115c.343-1.025 1.3-1.785 2.428-1.785z"
                  style="fill:var(--color13, #e94235)"/>
        </symbol>
        <symbol id="icon-minus" viewBox="0 0 17 17">
            <path d="M14.75 8.50006C14.75 8.69897 14.671 8.88974 14.5303 9.03039C14.3897 9.17104 14.1989 9.25006 14 9.25006H3C2.80109 9.25006 2.61032 9.17104 2.46967 9.03039C2.32902 8.88974 2.25 8.69897 2.25 8.50006C2.25 8.30115 2.32902 8.11038 2.46967 7.96973C2.61032 7.82908 2.80109 7.75006 3 7.75006H14C14.1989 7.75006 14.3897 7.82908 14.5303 7.96973C14.671 8.11038 14.75 8.30115 14.75 8.50006Z"/>
        </symbol>
        <symbol id="icon-plus" viewBox="0 0 17 17">
            <path d="M14.75 8.50006C14.75 8.69897 14.671 8.88974 14.5303 9.03039C14.3897 9.17104 14.1989 9.25006 14 9.25006H9.25V14.0001C9.25 14.199 9.17098 14.3897 9.03033 14.5304C8.88968 14.671 8.69891 14.7501 8.5 14.7501C8.30109 14.7501 8.11032 14.671 7.96967 14.5304C7.82902 14.3897 7.75 14.199 7.75 14.0001V9.25006H3C2.80109 9.25006 2.61032 9.17104 2.46967 9.03039C2.32902 8.88974 2.25 8.69897 2.25 8.50006C2.25 8.30115 2.32902 8.11038 2.46967 7.96973C2.61032 7.82908 2.80109 7.75006 3 7.75006H7.75V3.00006C7.75 2.80115 7.82902 2.61038 7.96967 2.46973C8.11032 2.32908 8.30109 2.25006 8.5 2.25006C8.69891 2.25006 8.88968 2.32908 9.03033 2.46973C9.17098 2.61038 9.25 2.80115 9.25 3.00006V7.75006H14C14.1989 7.75006 14.3897 7.82908 14.5303 7.96973C14.671 8.11038 14.75 8.30115 14.75 8.50006Z"/>
        </symbol>
        <symbol id="icon-check-mark" viewBox="0 0 16 16">
            <path d="M14.5306 5.03063L6.5306 13.0306C6.46092 13.1005 6.37813 13.156 6.28696 13.1939C6.1958 13.2317 6.09806 13.2512 5.99935 13.2512C5.90064 13.2512 5.8029 13.2317 5.71173 13.1939C5.62057 13.156 5.53778 13.1005 5.4681 13.0306L1.9681 9.53063C1.89833 9.46087 1.84299 9.37804 1.80524 9.28689C1.76748 9.19574 1.74805 9.09804 1.74805 8.99938C1.74805 8.90072 1.76748 8.80302 1.80524 8.71187C1.84299 8.62072 1.89833 8.53789 1.9681 8.46813C2.03786 8.39837 2.12069 8.34302 2.21184 8.30527C2.30299 8.26751 2.40069 8.24808 2.49935 8.24808C2.59801 8.24808 2.69571 8.26751 2.78686 8.30527C2.87801 8.34302 2.96083 8.39837 3.0306 8.46813L5.99997 11.4375L13.4693 3.96938C13.6102 3.82848 13.8013 3.74933 14.0006 3.74933C14.1999 3.74933 14.391 3.82848 14.5318 3.96938C14.6727 4.11028 14.7519 4.30137 14.7519 4.50063C14.7519 4.69989 14.6727 4.89098 14.5318 5.03188L14.5306 5.03063Z"/>
        </symbol>
        <symbol id="icon-filters" viewBox="0 0 24 25">
            <path d="M13.125 12.125V20.75C13.125 21.0484 13.0065 21.3345 12.7955 21.5455C12.5845 21.7565 12.2984 21.875 12 21.875C11.7016 21.875 11.4155 21.7565 11.2045 21.5455C10.9935 21.3345 10.875 21.0484 10.875 20.75V12.125C10.875 11.8266 10.9935 11.5405 11.2045 11.3295C11.4155 11.1185 11.7016 11 12 11C12.2984 11 12.5845 11.1185 12.7955 11.3295C13.0065 11.5405 13.125 11.8266 13.125 12.125ZM18.75 18.5C18.4516 18.5 18.1655 18.6185 17.9545 18.8295C17.7435 19.0405 17.625 19.3266 17.625 19.625V20.75C17.625 21.0484 17.7435 21.3345 17.9545 21.5455C18.1655 21.7565 18.4516 21.875 18.75 21.875C19.0484 21.875 19.3345 21.7565 19.5455 21.5455C19.7565 21.3345 19.875 21.0484 19.875 20.75V19.625C19.875 19.3266 19.7565 19.0405 19.5455 18.8295C19.3345 18.6185 19.0484 18.5 18.75 18.5ZM21 14.75H19.875V4.25C19.875 3.95163 19.7565 3.66548 19.5455 3.4545C19.3345 3.24353 19.0484 3.125 18.75 3.125C18.4516 3.125 18.1655 3.24353 17.9545 3.4545C17.7435 3.66548 17.625 3.95163 17.625 4.25V14.75H16.5C16.2016 14.75 15.9155 14.8685 15.7045 15.0795C15.4935 15.2905 15.375 15.5766 15.375 15.875C15.375 16.1734 15.4935 16.4595 15.7045 16.6705C15.9155 16.8815 16.2016 17 16.5 17H21C21.2984 17 21.5845 16.8815 21.7955 16.6705C22.0065 16.4595 22.125 16.1734 22.125 15.875C22.125 15.5766 22.0065 15.2905 21.7955 15.0795C21.5845 14.8685 21.2984 14.75 21 14.75ZM5.25 15.5C4.95163 15.5 4.66548 15.6185 4.4545 15.8295C4.24353 16.0405 4.125 16.3266 4.125 16.625V20.75C4.125 21.0484 4.24353 21.3345 4.4545 21.5455C4.66548 21.7565 4.95163 21.875 5.25 21.875C5.54837 21.875 5.83452 21.7565 6.0455 21.5455C6.25647 21.3345 6.375 21.0484 6.375 20.75V16.625C6.375 16.3266 6.25647 16.0405 6.0455 15.8295C5.83452 15.6185 5.54837 15.5 5.25 15.5ZM7.5 11.75H6.375V4.25C6.375 3.95163 6.25647 3.66548 6.0455 3.4545C5.83452 3.24353 5.54837 3.125 5.25 3.125C4.95163 3.125 4.66548 3.24353 4.4545 3.4545C4.24353 3.66548 4.125 3.95163 4.125 4.25V11.75H3C2.70163 11.75 2.41548 11.8685 2.2045 12.0795C1.99353 12.2905 1.875 12.5766 1.875 12.875C1.875 13.1734 1.99353 13.4595 2.2045 13.6705C2.41548 13.8815 2.70163 14 3 14H7.5C7.79837 14 8.08452 13.8815 8.2955 13.6705C8.50647 13.4595 8.625 13.1734 8.625 12.875C8.625 12.5766 8.50647 12.2905 8.2955 12.0795C8.08452 11.8685 7.79837 11.75 7.5 11.75ZM14.25 7.25H13.125V4.25C13.125 3.95163 13.0065 3.66548 12.7955 3.4545C12.5845 3.24353 12.2984 3.125 12 3.125C11.7016 3.125 11.4155 3.24353 11.2045 3.4545C10.9935 3.66548 10.875 3.95163 10.875 4.25V7.25H9.75C9.45163 7.25 9.16548 7.36853 8.9545 7.5795C8.74353 7.79048 8.625 8.07663 8.625 8.375C8.625 8.67337 8.74353 8.95952 8.9545 9.1705C9.16548 9.38147 9.45163 9.5 9.75 9.5H14.25C14.5484 9.5 14.8345 9.38147 15.0455 9.1705C15.2565 8.95952 15.375 8.67337 15.375 8.375C15.375 8.07663 15.2565 7.79048 15.0455 7.5795C14.8345 7.36853 14.5484 7.25 14.25 7.25Z"/>
        </symbol>
        <symbol id="icon-moon" viewBox="0 0 23 28">
            <path d="M19.719 20.359c-0.562 0.094-1.141 0.141-1.719 0.141-5.797 0-10.5-4.703-10.5-10.5 0-1.984 0.578-3.922 1.625-5.578-4.156 1.234-7.125 5.047-7.125 9.578 0 5.516 4.484 10 10 10 3.016 0 5.844-1.375 7.719-3.641zM22.891 19.031c-1.953 4.234-6.234 6.969-10.891 6.969-6.609 0-12-5.391-12-12 0-6.484 5.078-11.75 11.547-11.984 0.438-0.016 0.797 0.234 0.953 0.609 0.172 0.391 0.063 0.844-0.234 1.125-1.781 1.625-2.766 3.844-2.766 6.25 0 4.688 3.813 8.5 8.5 8.5 1.234 0 2.422-0.266 3.563-0.797 0.391-0.172 0.828-0.094 1.125 0.203s0.375 0.75 0.203 1.125z"/>
        </symbol>
        <symbol id="icon-sun" viewBox="0 0 32 32">
            <path d="M16 26c1.105 0 2 0.895 2 2v2c0 1.105-0.895 2-2 2s-2-0.895-2-2v-2c0-1.105 0.895-2 2-2zM16 6c-1.105 0-2-0.895-2-2v-2c0-1.105 0.895-2 2-2s2 0.895 2 2v2c0 1.105-0.895 2-2 2zM30 14c1.105 0 2 0.895 2 2s-0.895 2-2 2h-2c-1.105 0-2-0.895-2-2s0.895-2 2-2h2zM6 16c0 1.105-0.895 2-2 2h-2c-1.105 0-2-0.895-2-2s0.895-2 2-2h2c1.105 0 2 0.895 2 2zM25.899 23.071l1.414 1.414c0.781 0.781 0.781 2.047 0 2.828s-2.047 0.781-2.828 0l-1.414-1.414c-0.781-0.781-0.781-2.047 0-2.828s2.047-0.781 2.828 0zM6.101 8.929l-1.414-1.414c-0.781-0.781-0.781-2.047 0-2.828s2.047-0.781 2.828 0l1.414 1.414c0.781 0.781 0.781 2.047 0 2.828s-2.047 0.781-2.828 0zM25.899 8.929c-0.781 0.781-2.047 0.781-2.828 0s-0.781-2.047 0-2.828l1.414-1.414c0.781-0.781 2.047-0.781 2.828 0s0.781 2.047 0 2.828l-1.414 1.414zM6.101 23.071c0.781-0.781 2.047-0.781 2.828 0s0.781 2.047 0 2.828l-1.414 1.414c-0.781 0.781-2.047 0.781-2.828 0s-0.781-2.047 0-2.828l1.414-1.414z"/>
            <path d="M16 8c-4.418 0-8 3.582-8 8s3.582 8 8 8c4.418 0 8-3.582 8-8s-3.582-8-8-8zM16 21c-2.761 0-5-2.239-5-5s2.239-5 5-5 5 2.239 5 5-2.239 5-5 5z"/>
        </symbol>
        <symbol id="icon-prada" viewBox="0 0 100 20"
                preserveAspectRatio="xMidYMid meet">
            <path d="M5 15V5h8c2 0 3 1 3 3s-1 3-3 3H8v4H5zm3-6h5c.5 0 1-.5 1-1s-.5-1-1-1H8v2z"/>
            <path d="M20 15V5h8c2 0 3 1.5 3 3 0 1-.5 2-1.5 2.5l2 4.5h-3.5l-1.5-4H23v4h-3zm3-6h5c.5 0 1-.5 1-1s-.5-1-1-1h-5v2z"/>
            <path d="M40 15l-1.5-3h-5L32 15h-3l6-10h2l6 10h-3zm-4-5l-1.5 3h3L36 10z"/>
            <path d="M50 15V5h8c3 0 5 2 5 5s-2 5-5 5h-8zm3-2h5c1.5 0 2-1 2-3s-.5-3-2-3h-5v6z"/>
            <path d="M70 15l-1.5-3h-5L62 15h-3l6-10h2l6 10h-3zm-4-5l-1.5 3h3L66 10z"/>
        </symbol>

        <symbol id="icon-zara" viewBox="0 0 100 20"
                preserveAspectRatio="xMidYMid meet">
            <g transform="scale(1.25,1)">
                <path d="M5 15V13l8-6H5V5h13v2l-8 6h8v2H5z"/>
                <path d="M25 15l-1.5-3h-5L17 15h-3l6-10h2l6 10h-3zm-4-5l-1.5 3h3L21 10z"/>
                <path d="M35 15V5h8c2 0 3 1.5 3 3 0 1-.5 2-1.5 2.5l2 4.5h-3.5l-1.5-4H38v4h-3zm3-6h5c.5 0 1-.5 1-1s-.5-1-1-1h-5v2z"/>
                <path d="M55 15l-1.5-3h-5L47 15h-3l6-10h2l6 10h-3zm-4-5l-1.5 3h3L51 10z"/>
            </g>
        </symbol>

        <symbol id="icon-gucci" viewBox="0 0 100 20"
                preserveAspectRatio="xMidYMid meet">
            <path d="M5 15c-2 0-3-1-3-3V8c0-2 1-3 3-3h8c2 0 3 1 3 3v2h-3V8c0-.5-.5-1-1-1H5c-.5 0-1 .5-1 1v4c0 .5.5 1 1 1h5v-2H8v-2h5v4c0 2-1 3-3 3H5z"/>
            <path d="M20 15V5h3v6c0 .5.5 1 1 1h5c.5 0 1-.5 1-1V5h3v10h-3v-2h-7v2h-3z"/>
            <path d="M40 15c-2 0-3-1-3-3V8c0-2 1-3 3-3h8c2 0 3 1 3 3v1h-3V8c0-.5-.5-1-1-1h-6c-.5 0-1 .5-1 1v4c0 .5.5 1 1 1h6c.5 0 1-.5 1-1v-1h3v1c0 2-1 3-3 3h-8z"/>
            <path d="M55 15c-2 0-3-1-3-3V8c0-2 1-3 3-3h8c2 0 3 1 3 3v1h-3V8c0-.5-.5-1-1-1h-6c-.5 0-1 .5-1 1v4c0 .5.5 1 1 1h6c.5 0 1-.5 1-1v-1h3v1c0 2-1 3-3 3h-8z"/>
            <path d="M70 15V5h3v10h-3z"/>
        </symbol>
        <symbol id="icon-versace" viewBox="0 0 100 20"
                preserveAspectRatio="xMidYMid meet">
            <g transform="scale(0.714,1)">
                <path d="M5 15l-5-10h3l3 7 3-7h3l-5 10H5z"/>
                <path d="M15 15V5h13v2h-10v2h8v2h-8v2h10v2H15z"/>
                <path d="M32 15V5h8c2 0 3 1.5 3 3 0 1-.5 2-1.5 2.5l2 4.5h-3.5l-1.5-4H35v4h-3zm3-6h5c.5 0 1-.5 1-1s-.5-1-1-1h-5v2z"/>
                <path d="M48 15c-2 0-3-1-3-3V8c0-2 1-3 3-3h3v2h-3c-.5 0-1 .5-1 1v1h7v2h-7v1c0 .5.5 1 1 1h3v2h-3z"/>
                <path d="M60 15V7h-3V5h9v2h-3v8h-3z"/>
                <path d="M70 15l-1.5-3h-5L62 15h-3l6-10h2l6 10h-3zm-4-5l-1.5 3h3L71 10z"/>
                <path d="M80 15c-2 0-3-1-3-3V8c0-2 1-3 3-3h8c2 0 3 1 3 3v1h-3V8c0-.5-.5-1-1-1h-6c-.5 0-1 .5-1 1v4c0 .5.5 1 1 1h6c.5 0 1-.5 1-1v-1h3v1c0 2-1 3-3 3h-8z"/>
                <path d="M95 15V5h13v2h-10v2h8v2h-8v2h10v2H95z"/>
            </g>
        </symbol>
        <symbol id="icon-calvin-klein"
                viewBox="0 0 190 120"
                preserveAspectRatio="xMidYMid meet">
            <path d="M17.897 108.844c-6.549 0-12.139-5.94-12.139-12.419 0-6.455 5.473-12.513 12.092-12.513 4.351 0 7.484 2.105 10.034 5.403h3.204c-.959-1.731-1.988-3.321-3.555-4.561-2.69-2.175-6.175-3.461-9.636-3.461-8.303 0-15.062 6.853-15.062 15.109 0 8.279 6.853 15.062 15.109 15.062 3.368 0 6.666-1.239 9.309-3.321 1.661-1.333 2.83-3.064 3.953-4.842h-3.204c-2.527 3.298-5.754 5.543-10.105 5.543z"/>
        </symbol>
        <symbol id="icon-eye" viewBox="0 0 32 32">
            <path d="M16 6c-6.979 0-13.028 4.064-16 10 2.972 5.936 9.021 10 16 10s13.027-4.064 16-10c-2.972-5.936-9.021-10-16-10zM23.889 11.303c1.88 1.199 3.473 2.805 4.67 4.697-1.197 1.891-2.79 3.498-4.67 4.697-2.362 1.507-5.090 2.303-7.889 2.303s-5.527-0.796-7.889-2.303c-1.88-1.199-3.473-2.805-4.67-4.697 1.197-1.891 2.79-3.498 4.67-4.697 0.122-0.078 0.246-0.154 0.371-0.228-0.311 0.854-0.482 1.776-0.482 2.737 0 4.418 3.582 8 8 8s8-3.582 8-8c0-0.962-0.17-1.883-0.482-2.737 0.124 0.074 0.248 0.15 0.371 0.228v0zM16 13c0 1.657-1.343 3-3 3s-3-1.343-3-3 1.343-3 3-3 3 1.343 3 3z"/>
        </symbol>
        <symbol id="icon-eye-blocked" viewBox="0 0 32 32">
            <path d="M29.561 0.439c-0.586-0.586-1.535-0.586-2.121 0l-6.318 6.318c-1.623-0.492-3.342-0.757-5.122-0.757-6.979 0-13.028 4.064-16 10 1.285 2.566 3.145 4.782 5.407 6.472l-4.968 4.968c-0.586 0.586-0.586 1.535 0 2.121 0.293 0.293 0.677 0.439 1.061 0.439s0.768-0.146 1.061-0.439l27-27c0.586-0.586 0.586-1.536 0-2.121zM13 10c1.32 0 2.44 0.853 2.841 2.037l-3.804 3.804c-1.184-0.401-2.037-1.521-2.037-2.841 0-1.657 1.343-3 3-3zM3.441 16c1.197-1.891 2.79-3.498 4.67-4.697 0.122-0.078 0.246-0.154 0.371-0.228-0.311 0.854-0.482 1.776-0.482 2.737 0 1.715 0.54 3.304 1.459 4.607l-1.904 1.904c-1.639-1.151-3.038-2.621-4.114-4.323z"/>
            <path d="M24 13.813c0-0.849-0.133-1.667-0.378-2.434l-10.056 10.056c0.768 0.245 1.586 0.378 2.435 0.378 4.418 0 8-3.582 8-8z"/>
            <path d="M25.938 9.062l-2.168 2.168c0.040 0.025 0.079 0.049 0.118 0.074 1.88 1.199 3.473 2.805 4.67 4.697-1.197 1.891-2.79 3.498-4.67 4.697-2.362 1.507-5.090 2.303-7.889 2.303-1.208 0-2.403-0.149-3.561-0.439l-2.403 2.403c1.866 0.671 3.873 1.036 5.964 1.036 6.978 0 13.027-4.064 16-10-1.407-2.81-3.504-5.2-6.062-6.938z"/>
        </symbol>
    </defs>
</svg>
